<?xml version="1.0" encoding="utf-8"?>
<!-- Generator: Adobe Illustrator 27.9.5, SVG Export Plug-In . SVG Version: 9.03 Build 54986)  -->
<svg version="1.1" id="Calque_1" xmlns="http://www.w3.org/2000/svg" xmlns:xlink="http://www.w3.org/1999/xlink" x="0px" y="0px"
	 viewBox="0 0 1461 927.7" style="enable-background:new 0 0 1461 927.7;" xml:space="preserve">
<style type="text/css">
	.st0{fill:#F7BC5C;}
	.st1{fill:#FEBB46;}
</style>
<g>
	<g>
		<path class="st0" d="M1040.4,199.9c-6.7-54.2-36.8-105-80.5-137.8C916.2,29.3,859.5,14.6,805.3,21c-7.9,0.9-16.4,2.6-21.6,8.6
			c-1,1.1-1.8,2.4-2.3,3.9c11.4,1.7,22.7,3.9,33.8,6.6c2.3,0.1,4.5,0.8,6.6,1.7c8.9,2.4,17.6,5,26.2,8c1.5-0.6,2.9-1.5,4-2.8
			c1.9-2.3,2.7-5.5,5.4-6.8c3-1.4,6.6,0.8,8.6,3.5c2,2.7,3.2,6,5.7,8.2c8,7.1,20.5-1.9,31.1-0.2c9.2,1.4,14.9,10.3,21.7,16.7
			s19.5,9.7,24.2,1.6c2.6,9.8,5.4,19.9,11.8,27.9c6.3,7.9,17.3,13.2,26.9,9.8c3,14.1,3.2,28.8,0.4,42.9c6.3,1.9,12.9,4,17.8,8.4
			c4.9,4.4,7.8,11.9,4.9,17.8c-3.2,6.6-12.4,9.7-13.7,17c-2.2,12.9,22.3,19.4,18.7,32c-2.7,9.3-17.4,8.1-23.2,15.7
			c-8.8,11.5,9.9,28.8,3.1,41.5c-7,13.2-30.9,4.5-39.8,16.4c-7.4,9.8,0.9,26.8-8.4,34.7c-8.4,7.1-20.6-0.9-31.4-2.8
			c-10.5-1.8-21.3,2.8-29.3,9.8c-4.9,4.3-17.5,16.3-17.6,23.3c-0.1,7.5,9.6,14.2,15.4,17.9c13.8,8.8,31.4,11.7,47.4,8.9
			c24.8-4.3,46.2-20.3,62.8-39.3C1030.2,311.1,1047.1,254.2,1040.4,199.9z"/>
		<g>
			<path d="M811.2,39.1c5.5,1.3,11,2.7,16.5,4.3C822.6,40.5,817.2,37.9,811.2,39.1z"/>
			<path d="M1038.8,183.1c-6.5-30.2-20.1-58.8-39-83.2c-19.5-25.2-44.7-45.6-73.4-59.5c-29.8-14.4-62.8-22-95.9-22
				c-8.2,0-16.4,0.5-24.6,1.4c-7.1,0.8-14.7,2.1-20.5,6.6c-2.4,1.9-4.2,4.3-5.2,7c0.8,0.1,1.6,0.2,2.3,0.3
				c4.2-10,21.3-11.4,30.8-12.2c31.6-2.5,63.8,2,93.5,13.1c29.2,10.9,55.8,28.2,77.3,50.7c20.6,21.6,36.5,47.8,46.1,76.1
				c9.8,29,12.7,60,8.3,90.2c-4.5,30.6-16,60.1-34,85.3c-17.6,24.7-42.5,47.7-73.3,53.2c-15.8,2.8-32.8-0.1-46.5-8.6
				c-5.2-3.3-11.6-7.3-14.2-13.2c-2.5-5.5,1.8-10.8,5.1-14.8c3.4-4.1,7.2-7.9,11.2-11.4c5.3-4.6,11.7-8.1,18.7-9.4
				c7.2-1.3,13.7,0.8,20.5,3c5.6,1.8,12.1,3.9,17.9,1.6c5.1-2.1,7.8-6.8,8.5-12c1.5-9.9-2.4-23.6,8.7-29c8.7-4.3,19.2-2.2,28-6.2
				c4.1-1.9,7.2-5.4,8.2-9.8c1.1-4.8-0.3-9.8-1.9-14.4c-3-8.5-9.2-20.5,1-26.6c7-4.2,20.3-5.2,20.2-16c0-3.9-2.4-7.2-5-9.9
				c-3-3.2-6.6-5.8-9.6-9c-2.7-2.8-5.2-6.4-4.3-10.5c1.2-5.4,7.1-8.4,10.6-12.2c4.1-4.4,5.2-10.1,3-15.7
				c-2.5-6.3-7.9-10.3-13.9-12.9c-2.8-1.2-5.7-2.2-8.6-3.1c2.6-14,2.4-28.4-0.6-42.4c-0.1-0.6-0.9-1.1-1.5-0.9
				c-9.2,3.1-18.9-1.6-24.9-8.6c-6.8-7.9-9.5-18.4-12.2-28.2c-0.3-1-1.7-1.2-2.3-0.3c-3.3,5.6-10.7,4.7-15.8,2.4
				c-6.2-2.8-10.1-8.3-14.8-12.9c-4.7-4.8-10.3-8.7-17.3-8.6c-6.8,0.1-13.2,3.2-20,3.2c-3.6,0-6.8-1.4-8.9-4.3
				c-2.1-2.9-3.3-6.3-6.2-8.6c-2.3-1.8-5.5-2.8-8.2-1.2c-2.8,1.6-3.6,5-5.7,7.3c-1.3,1.4-2.8,2.1-4.5,2.5c1.2,0.4,2.4,0.8,3.6,1.3
				c3-1.6,4.2-4.3,6-7c2.9-4.2,7.3-1.8,9.6,1.7c2.1,3.1,3.6,6.7,6.8,8.9c2.6,1.7,5.7,2.2,8.7,2c7-0.4,13.7-3.8,20.8-3.1
				c7.6,0.7,13,7.2,17.8,12.4c4.5,4.9,9.4,9.1,16.1,10.4c4.5,0.9,9.2,0.3,12.4-2.9c2.7,9.9,5.8,20.1,12.9,27.7
				c6.3,6.8,16.1,11.2,25.3,8.8c2.7,13.5,2.7,27.5,0.1,41c-0.1,0.7,0.2,1.3,0.9,1.5c6.6,2,14,4.2,18.8,9.6
				c4.3,4.9,5.9,12.1,1.5,17.4c-3.3,4-8.3,6.6-10.9,11.2c-2.1,3.7-1.7,8,0.4,11.6c2.1,3.6,5.4,6.3,8.4,9.1c2.9,2.6,6.3,5.4,8.1,9
				c4.9,10.2-9.8,13.2-16.1,16.2c-4.1,2-7.6,5.1-8.6,9.7c-1,4.6,0.3,9.3,1.8,13.6c2.8,8.1,9.2,20.4,0.2,27c-3.7,2.7-8.5,3.4-12.9,4
				c-4.7,0.6-9.6,1-14.2,2.4c-4.4,1.4-8.4,3.9-10.6,8c-2.5,4.7-2.5,10.3-2.5,15.5c0,5.1,0.4,11.3-3,15.6c-4.2,5.3-11,4.4-16.8,2.8
				c-6.2-1.7-12.3-4.5-18.9-4.7c-6.6-0.3-13.3,1.8-19,5.1c-2.7,1.6-5.3,3.4-7.7,5.5c-4.4,3.9-8.6,8.1-12.3,12.7
				c-3.2,4.1-6.8,9.1-5.2,14.5c1.8,6.3,7.8,10.7,13,14.2c6.6,4.5,13.8,7.8,21.6,9.7c32.3,8.1,63.6-8.7,85.9-31.1
				c22.5-22.7,38.6-51.7,47.3-82.3C1044.2,247.3,1045.5,214.4,1038.8,183.1z"/>
		</g>
	</g>
	<g>
		<g>
			<path class="st0" d="M645.2,333c-8.6-10.3-26.5-10.5-35.5-0.6c-4.4,5-6.6,11.6-10.8,16.8c-12.2,15.2-41.1,9.7-46.8-9
				c-7.9-7.2-20.7,0.1-26.6,9c-5.9,8.9-9.9,20.3-19.7,24.5c-22.3,9.8-47.8-26.9-68.3-13.7c-15.2,9.7-8.4,36.6-22.7,47.5
				c-18,13.8-47.3-12.1-65.3,1.8c-17.2,13.3-3,47.8-21.8,58.7c-14,8-33-6.1-47.3,1.4c-13.3,7-12,26.1-8.9,40.8
				c3.1,14.7,4.2,33.9-9.2,40.6c-11.2,5.6-25.1-2.1-37.2,1.4c-10.8,3.2-17.2,15-17.4,26.2c-0.2,11.2,4.6,21.9,9.9,31.8
				c3.3,6.1,6.9,13.1,4.5,19.5c-3.5,9.2-16,10.2-25.7,9c-9.8-1.2-21.7-2.2-27.3,5.9c-7.6,13.3,4.9,28.7,15.8,39.5
				c10.8,10.8,21.1,29,10.3,39.9c-5,5.1-12.7,6.1-18.6,10.1c-11.5,7.9-12.1,25.7-5.1,37.7s19.4,19.8,31.3,27.1
				c-18,0.5-33,18.9-31.1,36.8c1.9,17.9,19.2,32.4,37.3,32.6c-26.2,15.5-16,42.4,2.5,59.3h64.9c13.3-14.9,8.3-37.4,5.4-55.1
				c-17.3-102.5,5.3-211.2,61.8-298.5C400.1,487,490.1,422,590.8,395.9c16.2-4.2,33.3-7.8,46.2-18.5
				C649.7,366.6,656,345.8,645.2,333z"/>
			<path d="M630.5,324.1c-6.6-0.8-13.5,0.8-18.8,4.8c-7,5.4-8.9,14.5-14.8,20.7c-9.1,9.7-25.5,9-35.7,1.3c-2.5-1.9-4.7-4.3-6.2-7
				c-0.7-1.3-1-3-1.8-4.2c-0.7-1.1-2.2-2-3.4-2.5c-6.3-2.9-13.5,0.1-18.6,4.1c-11.7,9.1-14,30.3-30.7,32.7
				c-12.8,1.9-25.1-7.8-35.9-13.1c-9.9-4.8-22-8.1-30.9,0.5c-9.4,9.1-8.2,24.1-12.9,35.6c-12.4,30.7-49.2-2.9-70.3,10
				c-10.8,6.6-11.6,20.4-12.6,31.8c-1,12.4-2.7,28.7-18.2,30.3c-14,1.5-29.9-8.8-42.7,0.8c-11.2,8.5-9.6,25.6-7.3,37.8
				c2.4,12.6,6.7,32.9-6.8,41.2c-7.9,4.8-17.6,2-26.2,1.2c-7.7-0.7-15.2,0.6-21.1,6.1c-12.9,12.2-10.2,31.2-3.6,45.8
				c2,4.5,4.5,8.7,6.6,13c2.3,4.7,4.2,10.4,1.7,15.4c-3.5,6.9-13,7.7-19.8,7.4c-7.4-0.3-14.8-2.1-22.2-0.4
				c-7,1.6-11.9,6.5-12.8,13.7c-0.9,8,3.2,15.6,7.7,21.8c5.1,6.9,11.8,12.5,16.9,19.4c4.7,6.4,9.5,15.1,8,23.4
				c-1.9,9.6-11.5,11.7-19,15.5c-13.2,6.7-16.1,23-11.2,36c5.3,14.2,18.6,23.3,31.1,31c-12.9,2.2-23.5,12.4-27.3,24.9
				c-4.4,14.4,2,29.3,13.6,38.2c5.8,4.5,12.7,7.3,19.9,8.2c-9.1,6.7-14.7,16.5-13,28.3c1.7,11.6,8.9,22,17.3,29.9h3.6
				c-8.1-7-14.9-16.2-17.7-26.4c-1.5-5.5-1.6-11.3,0.4-16.7c2.5-6.6,7.8-11.5,13.7-15c0.1-0.1,0.2-0.2,0.3-0.3c0,0,0,0,0-0.1
				c0.1-0.1,0.1-0.2,0.2-0.3c0,0,0,0,0,0c0-0.1,0-0.2,0.1-0.3c0-0.1,0-0.1,0-0.2c0,0,0-0.1,0-0.1c0-0.2-0.1-0.4-0.3-0.6c0,0,0,0,0,0
				c-0.1-0.1-0.1-0.1-0.2-0.2c-0.2-0.2-0.5-0.3-0.9-0.3c-17.3-0.4-34.2-14-35.9-31.7c-1.6-17.2,12.5-34.4,29.9-35.2
				c1.2-0.1,1.7-1.7,0.6-2.3c-14.2-8.6-30.9-18.9-34.6-36.4c-1.5-7.1-0.8-15.2,3.4-21.3c4.9-7.1,13.4-8.2,20.3-12.6
				c14.2-9.1,7.4-26.6-0.7-37.3c-5.1-6.8-11.7-12.2-16.6-19c-4.8-6.7-9.4-15.5-6.1-23.9c3.3-8.4,13.8-8.7,21.4-8.1
				c7,0.5,13.8,1.8,20.7,0.2c6-1.4,11.4-5.1,12.7-11.4c1.7-8.5-4.4-16.7-7.9-23.9c-4.4-8.9-8-19-6.7-29.1c1-7.8,5-15.9,12-20
				c14.2-8.4,32.7,5.6,45.9-6.3c9.9-9,8.3-25.4,6-37.2c-2.4-12.5-6.4-32.2,6.6-40.5c13-8.3,29.1,3.2,43.1,0
				c12.5-2.8,15.9-15.1,17.1-26.3c1.2-11.4,0.2-26.8,10.3-34.6c10.7-8.3,26.1-1.8,37.7,0.9c11.3,2.6,24.3,3.4,31.9-7.1
				c7.5-10.5,5.9-24.5,11.8-35.7c2.9-5.5,8.1-9.5,14.4-9.9c6-0.4,11.9,2.1,17.2,4.6c10.5,5.1,21.1,13,33.2,13.6
				c15.6,0.7,22-13.7,28.9-25c3.9-6.4,11-13.3,19.1-13.2c1.9,0,3.8,0.5,5.4,1.5c1.5,1,1.7,2.7,2.5,4.2c1.2,2.5,2.9,4.7,4.9,6.6
				c8.3,7.9,21.6,10.6,32.3,6.5c6-2.3,10.2-6.6,13.4-12.1c4.4-7.4,7.9-15,16.7-17.8c7.2-2.3,15.7-1.1,21.7,3.7
				c6,4.8,8.4,12.5,7.8,20c-1.4,18-16,29.7-31.8,35.7c-8.4,3.2-17.1,5.2-25.7,7.5c-8.1,2.1-16.2,4.4-24.2,7
				c-15.9,5.1-31.4,11.2-46.6,18.2c-30.4,14-59,31.6-85.4,52.3c-26.5,20.8-50.5,44.7-71.3,71.1c-21.8,27.8-40,58.3-54.1,90.7
				c-14.5,33.4-24.7,68.7-30.3,104.6c-5.6,36-6.7,72.7-3,108.9c0.9,8.9,2.1,17.9,3.7,26.7c1.3,7.9,2.8,15.9,3.2,23.9
				c0.3,8.1-0.5,16.5-4.5,23.7c-1.3,2.3-2.9,4.4-4.7,6.3h3.3c2.4-2.9,4.3-6.1,5.7-9.7c5.7-14.9,1.6-31.6-0.9-46.7
				c-3.1-18.9-4.9-38-5.3-57.2c-0.9-37.9,3.4-75.9,12.5-112.7c9.2-36.8,23.2-72.4,41.8-105.4c17.5-31,39.2-59.7,64.1-85.2
				c24.3-24.9,51.7-46.7,81.4-65c29.6-18.2,61.5-32.9,94.7-43.3c16.9-5.3,35-8.1,51.2-15.3c14.3-6.4,26.3-17.9,28.5-34.1
				C653.5,339,645.1,325.9,630.5,324.1z"/>
		</g>
		<g>
			<path class="st1" d="M1087.5,268.2c-1.2-79.9-43.9-156-105.4-206.9c-37.4-31-82.7-53.9-131-59.2c-40.8-4.5-83.8,4.6-117.4,27.7
				c31.5,0.4,62.1,4.8,91.1,12.8c42.2-2.9,85.5,8.4,119.5,33.5c47,34.7,74.1,95.4,66.2,153.2s-51.8,109.8-108.2,124.9
				c-46.4,12.4-95.3,1-143-5.1c-113.1-14.6-231.4,2.4-332.1,56.1S244.9,550.3,211,659.2c-27.3,87.6-21.8,185.8,16.7,268.5H361
				c-41.2-50.1-59.9-119.4-50.4-184.3c12.8-87.7,71.9-165,147.8-210.7s167.1-62.1,255.6-58.1c87.1,4,179.3,25.9,258.2-11.2
				C1044.5,429.4,1088.7,348.1,1087.5,268.2z"/>
			<g>
				<path d="M1053.2,143.7c-30-52.4-76.4-96.7-131.2-122.4C867.9-4.1,803.7-9.1,749.5,18.9c-6.2,3.2-12.2,6.8-17.9,10.9
					c1.5,0,3,0,4.5,0C780.7,0,839.2-4.3,890.3,11.6c59.6,18.5,111.7,60.7,147,111.6c33.8,48.7,53.5,108.5,48,168.1
					c-5.1,55.5-31.6,109.6-74.4,145.7c-23.5,19.8-51.6,32.9-81.5,39.7c-32.1,7.3-65.3,7.7-98,5.9c-33.5-1.8-66.8-5.9-100.2-8.2
					c-32.5-2.2-65.1-2.2-97.5,1.1c-63.1,6.5-125.7,24.8-179.8,58.4c-47.8,29.7-88.5,71.5-115.1,121.2
					C313,703.5,301.5,758.6,309.6,813c6.2,41.6,23.1,82,49.7,114.7h3.4c-20.9-25.2-36.1-55.2-44.7-86.9
					c-15.1-55.2-9.4-113.5,13.8-165.7c23.8-53.3,63.9-98.9,112.1-131.6c54.2-36.8,118.3-57.2,183-64.7c32.9-3.8,66.1-4.3,99.1-2.2
					c33.4,2.1,66.7,6.2,100.2,8.2c61.9,3.8,127.2-0.9,178.4-39.6c43.3-32.7,71.7-83.2,80.8-136.4
					C1095.3,252,1081.7,193.4,1053.2,143.7z"/>
				<path d="M219.3,638.9c20.4-54.6,53-104.2,93.5-146c41.6-42.9,91.4-77.4,145.9-101.7c60.8-27.1,126.8-41.7,193.2-45.1
					c33-1.7,66.1-0.6,98.9,3.2c34.8,4,69.3,11.6,104.4,11.7c30.2,0.1,59.8-6.2,85.5-22.4c22.3-14,40.7-33.9,53.4-56.9
					c26.8-48.5,23.9-107.3-3.4-155c-28.8-50.4-81.6-81.3-139.1-85.5c-10.1-0.7-20.3-0.6-30.4,0.3c2.4,0.6,4.8,1.3,7.2,2
					c52.6-2.6,106.1,17.2,141,57.5c37.7,43.5,52.3,106.2,31.3,160.6c-9.9,25.7-26.9,48.6-48.4,65.7c-24.1,19.1-53,29-83.5,30.8
					c-35.5,2.1-70.7-5.2-105.7-9.8c-32.3-4.3-64.9-6.1-97.5-5.3c-64.8,1.8-129.5,14.1-189.7,38.1c-54.7,21.8-105.2,53.3-148.2,93.5
					c-41.5,38.7-76.1,85.2-99.7,136.8c-24.2,52.8-36.4,110.5-35.2,168.5c1.1,50.8,12.2,101.5,33.6,147.6h2.8
					c-16.4-35.1-27-73-31.4-111.6C190.8,756.4,198.2,695.3,219.3,638.9z"/>
			</g>
			<path d="M348.1,616.2c4.8,2.7,9.8,5,15.1,6.9c1.5,0.5,2.2-1.9,0.7-2.4c-18.1-6.3-34-18.8-44.6-34.8c-3-4.5-5.6-9.3-7.7-14.3
				c-0.6-1.5-2.8-0.2-2.2,1.3C317.1,591,331,606.4,348.1,616.2z"/>
			<path d="M550.5,426.5c-0.8,0.1-1.7,0.2-2.5,0.4c-0.8,21.6,5.4,43.4,17.4,61.4c0.1,0.2,0.2,0.3,0.3,0.5c0.9-0.2,1.7-0.4,2.6-0.6
				c-9.1-13.3-15.1-28.8-17.2-44.8C550.5,437.7,550.3,432.1,550.5,426.5z"/>
			<path d="M273,641.4c-0.4,0.9-0.7,1.8-1.1,2.7c13.1,17.6,33,29.8,54.6,33.6c0.9,0.2,1.8,0.3,2.6,0.4c0.3-0.8,0.7-1.6,1-2.4
				c-16.7-2.3-32.7-9.6-45.2-20.9C280.6,650.8,276.5,646.3,273,641.4z"/>
			<path d="M432.2,532.9c-8.6-9-15.3-19.9-19.3-31.7c-2.3-6.6-3.7-13.5-4.2-20.5c0-0.1,0-0.2,0-0.2c-0.8,0.5-1.6,1-2.3,1.5
				c1.1,12.4,5,24.4,11.2,35.2c6,10.4,14,19.5,23.5,26.8c0.7-0.5,1.4-1,2.2-1.5C439.2,539.7,435.6,536.5,432.2,532.9z"/>
			<path d="M1030.9,351.2c-4.5-4-9.4-7.7-14.6-10.8c-1.4-0.8-2.6,1.3-1.3,2.2c17.6,10.5,31.5,27,39,46.1c0.5-0.9,1.1-1.8,1.6-2.6
				C1050.1,372.8,1041.6,360.8,1030.9,351.2z"/>
			<path d="M1039.4,196.3c0.2,0.9,0.4,1.7,0.5,2.6c0.2,0,0.3-0.1,0.5-0.3c9.2-7.7,22.4-9.7,33.7-5.9c-0.3-1-0.7-2-1-3
				c-8.3-2.3-17.5-1.8-25.5,1.6C1044.6,192.6,1041.9,194.3,1039.4,196.3z"/>
			<g>
				<path d="M767.3,31.7c-4.8-3.9-8.3-9.3-9.9-15.3c-0.8,0.3-1.5,0.7-2.3,1.1c1.4,5.2,4.2,10,7.9,13.8
					C764.5,31.4,765.9,31.6,767.3,31.7z"/>
				<path d="M1087.3,281.6c0-0.9,0.1-1.8,0.1-2.7c-9-4.7-18.9-7.7-29.1-9c-4.6-0.6-9.3-0.8-14-0.5c-0.1,0.7-0.2,1.4-0.3,2
					c0.3-2.4,0.6-4.7,0.8-7.1c0.9-10.6,0.8-21.4-0.1-32.2c12.7-3.6,26.1-4.2,39-1.8c-0.2-0.9-0.3-1.7-0.5-2.6
					c-9-1.6-18.3-1.8-27.4-0.5c-3.8,0.5-7.6,1.3-11.3,2.4c-1.4-14.8-4.1-29.6-7.6-43.6c-1.9-7.7-4.2-15.3-6.9-22.8
					c0.2-0.1,0.3-0.1,0.5-0.3c6.9-6.6,16.2-10.5,25.7-11.1c-0.4-0.8-0.9-1.6-1.3-2.4c-9.5,0.8-18.7,4.8-25.7,11.3
					c-3.2-8.8-6.9-17.4-11.1-25.8c0,0,0,0,0,0c0.2-0.1,0.4-0.3,0.5-0.5c3.9-6.9,10.7-12,18.3-13.8c-0.5-0.7-1-1.4-1.5-2.1
					c-7.7,2.1-14.4,7.2-18.6,14.1c0,0,0,0,0,0c-3.2-6.2-6.7-12.2-10.4-18.1c0.1-0.2,0.2-0.4,0.2-0.6c0.4-7.2,7.5-13.2,14.6-12.6
					c0.1,0.1,0.2,0.3,0.3,0.4c0.4,0.4,0.8,0.6,1.3,0.7c-1-1.2-2-2.4-3-3.6c-7.2,0.2-13.9,5.6-15.5,12.7
					c-5.1-7.8-10.8-15.3-16.9-22.3c0.4,0.5,0.9,1,1.3,1.5c0.3-6.2,3.8-11.8,8.8-15.3c-0.6-0.6-1.2-1.2-1.9-1.8
					c-4.7,3.5-8.1,8.7-9.1,14.5c-4.6-5.3-9.5-10.3-14.7-15.1c0-0.1,0-0.3,0-0.4c-1.3-5.4,1.3-11.3,5.9-14.5c-0.7-0.5-1.3-1-2-1.6
					c-4.2,3.2-7,8.5-6.7,13.9c-5.8-5.2-11.9-10.1-18.4-14.6c0-0.1,0-0.1,0-0.2c-1.7-5.3-1.2-11.1,1.2-16.1c-0.7-0.4-1.4-0.9-2.1-1.3
					c-2.4,4.8-3.2,10.3-2.1,15.5c-7.2-4.9-14.9-9.2-22.7-13c-0.9-5.2,0-10.5,2.2-15.2c-0.7-0.4-1.5-0.7-2.2-1.1
					c-2.2,4.7-3.1,9.9-2.6,15.1c-6.4-3-12.9-5.6-19.6-7.9c0-0.1-0.1-0.1-0.1-0.2c-3.1-5.1-3.5-11.6-1.1-17c-0.8-0.3-1.5-0.6-2.3-0.8
					c-2.3,5.3-2.3,11.6,0.1,16.9c-8.6-2.7-17.4-4.9-26.3-6.4c0-0.1-0.1-0.2-0.1-0.3c-2.7-5.6-2.9-12.1-0.7-17.9
					c-0.8-0.2-1.6-0.4-2.5-0.5c-2.1,5.9-2,12.4,0.3,18.2c0.1,0,0.3,0.1,0.4,0.1c-7.2-1.1-14.5-1.8-21.8-2.1c0.1-0.2,0.1-0.5,0-0.8
					c-2.1-6-1.6-12.7,1.4-18.4c-0.9-0.1-1.8-0.2-2.7-0.3c-2.9,6-3.4,13-1.2,19.3c0,0,0,0,0,0.1c0.2,0,0.4,0,0.6,0
					c-6-0.2-12.1,0-18.1,0.4c0-0.1,0-0.1-0.1-0.2c-2.5-6.8-1-14.8,3.5-20.3c-1,0-2.1,0-3.1,0c-4.1,6-5.4,13.8-2.9,20.7
					c-5.3,0.5-10.6,1.2-15.9,2.2c0-0.2-0.1-0.4-0.2-0.6c-4.5-6.4-3.9-15.5,1.2-21.3c-1.1,0.1-2.3,0.2-3.4,0.4
					c-4.3,6.5-4.5,15.5-0.1,22c-1.6,0.3-3.1,0.6-4.7,1c-3.6,0.8-7.1,1.8-10.6,2.8c-0.1-0.3-0.2-0.5-0.5-0.7
					c-6.9-4.2-11.6-11.3-13.1-19.2c-0.8,0.2-1.6,0.5-2.4,0.7c1.6,8.1,6.4,15.4,13.3,20c-3.7,1.2-7.4,2.6-11.1,4.1
					c1.7,0.2,3.4,0.5,5,0.7c44.8-16.7,96-12.2,139,8.3c50.3,24.1,87,70.2,105.1,122.4c8.9,25.8,13.6,53,14.6,80.3
					c1,26.1-4.8,51.2-17.2,74.3c-25.8,47.9-72.3,79.3-123.7,94.3c-57.8,16.8-118.8,15-178.2,11.2c-63.2-4-127.5-10.1-190.2,2.2
					c-48.8,9.6-95.4,29.9-136.2,58.4c-40.5,28.3-75.4,64.6-101.5,106.6c-28.5,46.1-45.5,98.8-50.6,152.6c-5.2,55,1.8,111.2,21.2,163
					c2.6,6.9,5.4,13.6,8.4,20.3h2.7c-5.1-11.2-9.5-22.8-13.4-34.5c22.4,6.2,47,3.3,67.6-7.4c0.6-0.3,1.2-0.7,1.8-1
					c-0.4-0.8-0.7-1.5-1.1-2.3c-15.4,8.5-33.2,12.4-50.8,11.2c-6.3-0.4-12.4-1.6-18.4-3.4c-4.1-12.8-7.4-25.8-10.1-38.9
					c20.6,6.7,43.6,5.6,63.6-2.6c0.7-0.3,1.4-0.6,2.2-0.9c-0.2-0.8-0.5-1.6-0.7-2.4c-15,6.7-31.8,9.2-48.1,7.2
					c-6-0.7-11.8-2.1-17.5-4c-2.4-12.6-4.2-25.3-5.2-38.1c19.1,9.3,41.6,11,62,5.1c0.7-0.2,1.3-0.4,2-0.6c-0.1-0.8-0.3-1.7-0.4-2.5
					c-15.2,4.9-31.8,5.4-47.3,1.4c-5.7-1.5-11.3-3.6-16.6-6.3c-0.8-10.3-1.2-20.6-1.1-31c0-3.4,0.1-6.7,0.2-10.1
					c19,9.8,40.9,13.5,62.1,10.8c0-0.8,0-1.7,0-2.5c-14.8,1.9-30,0.7-44.3-3.7c-6.1-1.9-12-4.3-17.6-7.3c0.5-11.7,1.6-23.4,3.2-35
					c18.2,11.3,40.2,15.9,61.4,13.4c0.1-0.9,0.3-1.7,0.4-2.6c-15.2,1.9-30.8,0.1-45.2-5.3c-5.7-2.2-11.1-4.9-16.2-8.2
					c2.1-14.4,5.1-28.6,8.9-42.6c14.5,17.1,36.1,27.6,58.4,29.3c0.2-0.8,0.5-1.6,0.7-2.5c-16.3-1.1-32.3-7.1-45.3-17
					c-4.8-3.7-9.2-8-13-12.7c6.6-23.4,15.6-46.1,26.9-67.6c1.6-3,3.2-5.9,4.9-8.8c8.3,20.7,25.7,37.2,46.6,45.1
					c1.6,0.6,3.2,1.1,4.8,1.6c0.4-0.7,0.8-1.5,1.3-2.2c-17-5-32.2-16-42.4-30.5c-3.5-5.1-6.5-10.6-8.6-16.4c0-0.1-0.1-0.2-0.1-0.2
					c13.5-23.2,29.7-44.8,48.1-64.4c5,21.2,19.2,39.8,37.9,50.9c2.3,1.4,4.7,2.6,7.2,3.7c0.6-0.7,1.2-1.3,1.8-1.9
					c-17.1-7.7-31.2-21.7-39.3-38.6c-2.5-5.2-4.3-10.7-5.5-16.3c9-9.4,18.4-18.3,28.4-26.7c2.6,11.9,7.5,23.3,14.3,33.4
					c6.8,10.1,15.3,18.9,25.2,25.9c0.6-0.6,1.3-1.1,1.9-1.7c-4.1-2.9-7.9-6-11.5-9.4c-9.1-8.7-16.4-19.2-21.6-30.6
					c-2.8-6.2-4.9-12.7-6.2-19.4c4-3.4,8.1-6.6,12.3-9.8c19-14.5,39.5-27.2,61-37.7c4.4,20.8,14.1,40.4,27.9,56.6
					c1.6,1.9,3.2,3.7,4.9,5.5c0.8-0.4,1.6-0.8,2.4-1.2c-12.6-13-22.4-28.8-28.4-45.9c-1.9-5.3-3.3-10.7-4.5-16.2
					c15.7-7.5,31.9-14,48.4-19.2c2,20.7,10.5,40.7,24,56.5c1.6,1.9,3.3,3.7,5.1,5.5c0.9-0.3,1.8-0.6,2.6-0.9
					c-12.6-12.4-21.9-28.2-26.4-45.3c-1.5-5.4-2.4-11-2.9-16.6c7.5-2.3,15.1-4.3,22.7-6.1c63-14.7,128-9.3,191.9-5.1
					c59.5,3.9,120.4,6.7,178.7-8.2c8.4-2.2,16.7-4.7,24.8-7.7c7.4,18.8,10.1,39.4,7.8,59.5c-0.3,3-0.8,5.9-1.4,8.9
					c0.9-0.2,1.8-0.4,2.6-0.5c3.2-17.5,2.7-35.7-1.6-53.1c-1.3-5.3-3-10.6-5.1-15.7c12.2-4.6,24-10.2,35.2-16.7
					c13.4,20,19.4,44.5,17.3,68.5c0,0.5-0.1,1.1-0.2,1.6c0.9-0.4,1.7-0.8,2.6-1.3c1.6-17.7-1.1-35.9-8-52.3
					c-2.6-6.2-5.8-12.2-9.5-17.8c0,0,0,0,0,0c10.7-6.4,20.9-13.7,30.2-22c0,0,0,0,0,0c14.4,19.6,22.9,43.3,24.5,67.6
					c0.8-0.7,1.6-1.4,2.4-2c-1.3-17.2-6.1-34.1-14-49.5c-3.2-6.2-6.8-12.1-11-17.7c0,0,0,0,0,0c11.5-10.4,21.7-22.2,30.4-35.5
					c5.4-8.3,10.1-17.1,14-26.3c0,0,0,0,0,0c17.1,5,32.4,15.1,43.8,28.7c0.3-1,0.6-1.9,0.8-2.9c-8.2-9.5-18.3-17.3-29.6-22.8
					c-4.5-2.2-9.2-4-14-5.4c4.1-10.4,7.1-21.2,8.7-32.2C1059,271.1,1074,274.6,1087.3,281.6z"/>
			</g>
		</g>
	</g>
</g>
</svg>
