<?xml version="1.0" encoding="utf-8"?>
<!-- Generator: Adobe Illustrator 27.9.5, SVG Export Plug-In . SVG Version: 9.03 Build 54986)  -->
<svg version="1.1" id="Calque_1" xmlns="http://www.w3.org/2000/svg" xmlns:xlink="http://www.w3.org/1999/xlink" x="0px" y="0px"
	 viewBox="0 0 716.8 716.8" style="enable-background:new 0 0 716.8 716.8;" xml:space="preserve">
<style type="text/css">
	.st0{fill:none;}
	.st1{fill:#FFAB3B;}
	.st2{fill:#FD9630;}
	.st3{fill:#FF7417;}
	.st4{fill:none;stroke:#2A0201;stroke-width:0.8979;stroke-linecap:round;stroke-linejoin:round;stroke-miterlimit:10;}
	.st5{fill:none;stroke:#2A0201;stroke-width:1.7957;stroke-linecap:round;stroke-linejoin:round;stroke-miterlimit:10;}
</style>
<g>
	<g>
		<path class="st0" d="M90.9,358.4c0,147.5,120,267.5,267.5,267.5s267.5-120,267.5-267.5c0-147.5-120-267.5-267.5-267.5
			S90.9,210.9,90.9,358.4z"/>
		<path class="st1" d="M135.9,121.8l12,11.9l-4.5,4.5l-4.2-4.2l-3.5-3.5l-5.7,5.7l16.8,16.8l14.5-14.5l-21.9-21.9
			c-2.2,2.7-4.4,5.4-6.6,8.2L135.9,121.8z"/>
		<path class="st1" d="M87.5,257.5l-14.8-6.1c-0.4,1.9-0.8,3.7-1.2,5.6l25.1,10.4c2-5.7,4.1-11.3,6.5-16.8c4-9.4,8.4-18.5,13.4-27.3
			l-28.8-19.2c-2.1,5.3-4.1,10.6-5.9,16l18.3,7.6L87.5,257.5z"/>
		<path class="st1" d="M68.3,305.3l4-20.2l-5.5-1.1c-0.9,6.8-1.5,13.6-2,20.6L68.3,305.3z"/>
		<path class="st1" d="M189.2,124l-19.9-29.7l17-11.3l9.4,14.1l-5.3,3.5l-3.3-5l-2.8-4.1l-6.8,4.5l13.2,19.8l17.1-11.4l-22.4-33.5
			c-8.4,6.8-16.5,14.1-24.2,21.7l29.9,44.7c12.9-9.8,26.6-18.4,41-25.7l-23.9-57.6c-6.2,4.2-12.3,8.6-18.1,13.2l25.9,38.8L189.2,124
			z"/>
		<path class="st1" d="M146.7,161.5l-23.5-23.5c-1.1,1.6-2.2,3.2-3.2,4.7l31.4,31.4c3.6-4,7.2-7.9,11-11.7
			c7.7-7.7,15.7-14.9,24.2-21.5l-29.4-44c-4.8,4.9-9.4,10-13.9,15.2l26.4,26.4L146.7,161.5z"/>
		<path class="st1" d="M112.4,206.6L92.1,193c-0.8,1.7-1.5,3.5-2.3,5.3l29.5,19.7c8.2-13.9,17.5-27.1,28.1-39.4l-30.8-30.8v0
			c-3.4,5.3-6.6,10.6-9.7,16.1l23.6,15.7L112.4,206.6z"/>
		<path class="st1" d="M312.2,643.9c1.8,0.5,3.7,0.9,5.5,1.3l2.5-12.3c-16-2.2-31.8-5.8-47.2-10.8l-3.3,7.9
			c12.8,5.2,26.1,9.6,39.7,13.1l2.9,0.6L312.2,643.9z"/>
		<path class="st1" d="M250.5,613.8c-9.4-4-18.5-8.4-27.3-13.4l-3.1,4.6c14,8.7,28.8,16.3,44.1,22.8l3.1-7.5
			C261.7,618.3,256.1,616.1,250.5,613.8z"/>
		<path class="st1" d="M178.6,569.3l-2.8,2.8c12.3,10.8,25.4,20.8,39.3,29.7l2.9-4.4C204.1,589.3,190.9,579.9,178.6,569.3z"/>
		<path class="st1" d="M84.3,249.7l7.9-19l-12.4-5.1c-2.1,6.5-4,13.2-5.7,19.9L84.3,249.7z"/>
		<path class="st1" d="M570.1,555.3l25.3,25.3l-12.1,12.1c6.2-4.5,12.3-9.1,18.2-14l-36-36c-3.6,4-7.2,7.9-11,11.7
			c-7.7,7.7-15.7,14.9-24.2,21.5l23.7,35.5c5.6-3.1,11-6.5,16.4-9.9l-23.2-23.2L570.1,555.3z"/>
		<path class="st1" d="M108.1,179.1l-3.5,5.3l-4.9-3.3l-1.4-1c-1.2,2.4-2.4,4.9-3.5,7.4l16.1,10.8l11.4-17.1L104,169
			c-1,1.8-1.9,3.6-2.9,5.4L108.1,179.1z"/>
		<path class="st1" d="M527.6,592.8l16.1,24.1c1.7-0.9,3.4-1.8,5-2.7l-23.2-34.7c-12.9,9.8-26.6,18.4-41,25.7l13,31.3
			c5.5-1.9,10.9-3.8,16.3-6l-13.2-19.8L527.6,592.8z"/>
		<path class="st1" d="M73,312.3l-8.4-1.7c-0.1,1.9-0.2,3.8-0.2,5.7l19.4,3.9c2.2-16,5.8-31.8,10.8-47.2l-24.4-10.1
			c-1,5-1.8,10.1-2.6,15.2l11.7,2.3L73,312.3z"/>
		<path class="st1" d="M69.5,368.8h-2.4c0.2,1.9,0.5,3.8,0.8,5.6h13.8c-0.3-5.3-0.5-10.7-0.5-16.1c0-10.9,0.6-21.7,1.9-32.3
			l-18.8-3.7c0,1.1,0,2.2,0,3.3c0,3.6,0.1,7.2,0.2,10.7h5.1V368.8z"/>
		<path class="st1" d="M604.4,510.2l29.7,19.8l-11.3,17l-14.1-9.4l3.5-5.3l4.9,3.3l4.1,2.8l4.5-6.7L606,518.5l-11.4,17.1l31.1,20.8
			c5.7-5.7,11.1-11.7,16.4-17.8l4.6-6.9l-49.3-32.9c-8.2,13.9-17.6,27.1-28.1,39.4l36.6,36.7c5.3-4.6,10.5-9.3,15.5-14.2l-35.1-23.5
			L604.4,510.2z"/>
		<path class="st1" d="M475.4,629.1l-19,7.9l4.1,9.8c6.8-1.4,13.6-3.1,20.2-5L475.4,629.1z"/>
		<path class="st1" d="M521.1,619.8l5.3-3.5l3.3,5l1.3,2c2.5-1.2,4.9-2.3,7.4-3.5l-12.4-18.6l-17.1,11.4l10.6,15.8
			c1.9-0.8,3.8-1.6,5.7-2.5L521.1,619.8z"/>
		<path class="st1" d="M425,639.7l2.4,12.2c1.9-0.2,3.8-0.4,5.6-0.7l-4.9-24.6c-15.6,4-31.5,6.7-47.7,8v18.9c4,0.2,8,0.2,12,0.2
			c0.8,0,1.5,0,2.3,0l-1.5-7.7L425,639.7z"/>
		<path class="st1" d="M82.1,380.4H68.8c2.9,17,7,33.5,12.4,49.5l8.9-1.8C86,412.6,83.3,396.6,82.1,380.4z"/>
		<path class="st1" d="M478.6,621.3l7.8,18.8c1.8-0.5,3.6-1.1,5.4-1.7l-12.7-30.6c-4.2,2.1-8.5,4-12.9,5.9
			c-10.6,4.5-21.4,8.3-32.4,11.4l5,25.4c5.2-0.7,10.4-1.6,15.5-2.6l-5.9-14.2L478.6,621.3z"/>
		<path class="st1" d="M580.5,594.6l-11.5-11.5l4.5-4.5l4.2,4.2l3.5,3.5l5.7-5.7l-16.8-16.8l-14.5,14.5l19.9,19.9
			C577.1,597,578.8,595.8,580.5,594.6L580.5,594.6z"/>
		<path class="st1" d="M368.8,647.3v5.7c1.9,0.1,3.8,0.3,5.7,0.4v-18.2c-5.3,0.3-10.7,0.5-16.1,0.5c-10.9,0-21.7-0.6-32.3-1.9
			l-2.6,12.9c4.2,0.9,8.5,1.7,12.8,2.5v-1.7H368.8z"/>
		<path class="st1" d="M420.3,646.7l-20.2,4l0.6,3c7-0.2,13.9-0.6,20.7-1.2L420.3,646.7z"/>
		<path class="st1" d="M629.3,459.3l33,13.7l-7.8,18.8l-15.6-6.5l2.4-5.9l5.5,2.3l4.6,1.9l3.1-7.5l-22-9.1l-7.9,19l38,15.7
			l12.3-29.7l-54.7-22.7c-2,5.7-4.1,11.3-6.5,16.8c-4,9.4-8.4,18.5-13.4,27.3l50.8,33.9c4.7-6,9.2-12.1,13.4-18.5l-47.7-19.8
			L629.3,459.3z"/>
		<path class="st1" d="M162.4,554.4c-7.7-7.7-14.9-15.7-21.5-24.2l-3.3,2.2c10.4,12.7,21.7,24.7,33.8,35.8l2.8-2.8
			C170.1,561.9,166.2,558.2,162.4,554.4z"/>
		<path class="st1" d="M111.5,484.5l-5.1,2.1c8.1,14.4,17.3,28.2,27.5,41.1l3.4-2.3C127.5,512.6,118.9,498.9,111.5,484.5z"/>
		<path class="st1" d="M103,466.3c-4.5-10.6-8.3-21.4-11.4-32.4l-8.5,1.7c5.6,15.9,12.4,31.2,20.3,45.8l5.4-2.2
			C106.8,474.9,104.8,470.6,103,466.3z"/>
		<path class="st1" d="M224.2,43.8l23.7-9.8l20.3,49l-30,12.4l-13.7-33l18.9-7.8l6.5,15.6l-5.9,2.4l-2.3-5.5l-1.9-4.6l-7.5,3.1
			l9.1,22l19-7.9l-15.8-38l-29.7,12.3l22.7,54.7c4.2-2.1,8.5-4,12.9-5.8c10.6-4.5,21.4-8.3,32.4-11.4l-12.8-64.3l43.2-8.6l10.4,52.1
			l-31.8,6.3l-7-35.1l20-4l3.3,16.6l-6.2,1.2l-1.2-5.8l-1-4.9l-8,1.6l4.6,23.3l20.2-4l-8-40.4L277.1,32l11.6,58.1
			c15.6-4.1,31.5-6.7,47.7-8V16.4h44.1v53.1H348V33.8h20.4v16.9H362V39.7h-8.1v23.8h20.6V22.4h-32.2v59.3c5.3-0.3,10.7-0.5,16.1-0.5
			c10.9,0,21.6,0.6,32.3,1.9l12.8-64.4l43.2,8.6l-10.3,52L404.5,73l7-35l20,4l-3.3,16.6l-6.2-1.3l1.2-5.8l1-4.9l-8-1.6l-4.7,23.3
			l20.2,4l8-40.4l-31.5-6.3l-11.6,58.2c16,2.2,31.8,5.8,47.2,10.8L468.9,34l40.7,16.9l-20.3,49l-30-12.4l13.7-33l18.9,7.8l-6.5,15.6
			l-5.9-2.4l2.3-5.5l1.9-4.6l-7.5-3.1l-9.1,22l19,7.9l15.8-38l-29.7-12.3l-22.7,54.7c5.7,2,11.3,4.1,16.8,6.5
			c9.4,4,18.5,8.4,27.3,13.4l36.5-54.6l36.6,24.5l-29.5,44.1l-27-18l19.8-29.7l17,11.3l-9.4,14.1l-5.3-3.5l3.3-5l2.8-4.1l-6.8-4.5
			l-13.2,19.8l17.1,11.4l22.9-34.2l-26.7-17.9l-32.9,49.3c13.9,8.2,27.1,17.6,39.4,28.1l46.4-46.4l31.2,31.2l-37.5,37.5l-23-23
			l25.3-25.3l14.4,14.4l-11.9,12l-4.5-4.5l7.7-7.7l-5.7-5.7l-16.8,16.8l14.5,14.5l29.1-29.1l-22.7-22.7l-41.9,41.9
			c4,3.6,7.9,7.2,11.7,11.1c7.7,7.7,14.8,15.7,21.5,24.2l54.6-36.5l24.5,36.6l-44.1,29.5l-18-27l29.7-19.8l11.3,17l-14,9.4l-3.5-5.3
			l4.9-3.3l4.1-2.8l-4.5-6.7l-19.8,13.2l11.4,17.1l34.2-22.9l-17.9-26.7l-49.3,33c9.8,12.9,18.4,26.6,25.7,41l60.6-25.1l16.9,40.7
			l-49.1,20.3l-12.4-30l33-13.7l7.8,18.8l-15.6,6.5l-2.4-5.9l5.5-2.3l4.6-1.9l-3.1-7.5l-22,9.1l7.9,19l38-15.8l-12.3-29.7
			l-54.8,22.7c2.1,4.2,4,8.5,5.9,12.9c4.5,10.6,8.3,21.4,11.4,32.4l64.3-12.8l8.6,43.2L646,323.6l-6.3-31.8l35.1-7l4,20l-16.6,3.3
			l-1.3-6.2l5.8-1.2l4.9-1l-1.6-8l-23.3,4.7l4,20.2l40.4-8l-6.3-31.6l-58.1,11.6c4.1,15.6,6.7,31.5,8,47.7h65.7v44.1h-53.1V348H683
			v20.4h-16.9V362h10.9v-8.1h-23.8v20.6h41.2v-32.2h-59.3c0.3,5.3,0.5,10.7,0.5,16.1c0,10.9-0.6,21.7-1.9,32.3l64.4,12.8l-8.6,43.2
			l-52-10.3l6.3-31.8l35.1,7l-4,20l-16.6-3.3l1.2-6.2l5.8,1.1l4.9,1l1.6-8l-23.3-4.6l-4,20.2l40.4,8l6.3-31.5L633,396.6
			c-2.2,16-5.8,31.8-10.8,47.2l60.6,25.1l-14,33.8c13-20.2,23.8-41.8,32.1-64.7c5.9-25.6,9.1-52.2,9.1-79.6
			c0-193.8-157.7-351.5-351.5-351.5c-22.7,0-44.9,2.2-66.5,6.3h0C268,20.8,245.3,31.2,224.2,43.8z"/>
		<path class="st2" d="M611.2,105.6C578.4,72.8,540.1,47,497.6,29C453.5,10.4,406.7,0.9,358.4,0.9c-5.4,0-10.8,0.1-16.1,0.4
			c-17.3,2.7-34.1,6.6-50.4,11.9c21.5-4.1,43.7-6.3,66.5-6.3c193.8,0,351.5,157.7,351.5,351.5c0,27.4-3.1,54-9.1,79.6
			c5.9-16.2,10.5-32.9,13.9-50.2c0,0,0,0,0,0c0.8-9.7,1.2-19.5,1.2-29.4c0-48.3-9.5-95.1-28.1-139.2
			C669.8,176.7,644,138.4,611.2,105.6z"/>
		<path class="st2" d="M69.5,368.8v-32.5h-5.1c0.4,11,1.2,21.8,2.7,32.5H69.5z"/>
		<path class="st2" d="M99.6,181.1l4.9,3.3l3.5-5.3l-7-4.7c-1,1.9-2,3.8-2.9,5.7L99.6,181.1z"/>
		<path class="st2" d="M72.3,285.1l-4,20.2l-3.4-0.7c-0.1,2-0.2,4-0.3,6l8.4,1.7l6.3-31.8l-11.7-2.3c-0.3,2-0.5,3.9-0.8,5.9
			L72.3,285.1z"/>
		<path class="st2" d="M529.7,621.2l-3.3-5l-5.3,3.5l4,6.1c2-0.9,3.9-1.8,5.9-2.7L529.7,621.2z"/>
		<path class="st2" d="M575.4,598.1l-19.9-19.9l14.5-14.5l16.8,16.8l-5.7,5.7l-3.5-3.5l-4.2-4.2l-4.5,4.5l11.5,11.5
			c0.9-0.6,1.8-1.3,2.7-1.9l12.1-12.1l-25.3-25.3l-22.9,23l23.2,23.2C572,600.4,573.7,599.2,575.4,598.1L575.4,598.1z"/>
		<path class="st2" d="M232.3,111.5c-14.4,7.4-28.1,16-41,25.7l-29.9-44.7c-1.4,1.4-2.9,2.9-4.3,4.3l29.4,44
			c-8.4,6.7-16.5,13.8-24.2,21.5c-3.8,3.8-7.5,7.7-11,11.7l-31.4-31.4c-1.1,1.7-2.3,3.4-3.3,5.1l30.8,30.8
			c-10.5,12.3-19.9,25.5-28.1,39.4l-29.5-19.7c-0.8,1.9-1.6,3.7-2.3,5.6l28.8,19.2c-4.9,8.8-9.4,17.9-13.4,27.3
			c-2.3,5.6-4.5,11.2-6.5,16.8l-25.1-10.4c-0.4,2-0.8,3.9-1.2,5.9L94.6,273c-5,15.4-8.6,31.2-10.8,47.2l-19.4-3.9
			c-0.1,2-0.1,4-0.1,6l18.8,3.7c-1.2,10.6-1.9,21.4-1.9,32.3c0,5.4,0.2,10.8,0.5,16.1H67.9c0.3,2,0.6,4,0.9,6h13.3
			c1.3,16.2,3.9,32.1,8,47.7l-8.9,1.8c0.6,1.9,1.3,3.8,2,5.7l8.5-1.7c3.1,11,6.9,21.8,11.4,32.4c1.8,4.4,3.8,8.7,5.8,12.9l-5.4,2.2
			c1,1.8,1.9,3.5,2.9,5.2l5.1-2.1c7.4,14.4,16,28.1,25.7,41l-3.4,2.3c1.2,1.6,2.5,3.1,3.7,4.7l3.3-2.2c6.6,8.4,13.8,16.5,21.5,24.2
			c3.8,3.8,7.7,7.5,11.7,11.1l-2.8,2.8c1.5,1.3,2.9,2.7,4.4,4l2.8-2.8c12.3,10.5,25.5,19.9,39.4,28.1l-2.9,4.4
			c1.7,1.1,3.4,2.1,5,3.2l3.1-4.6c8.8,5,17.9,9.4,27.3,13.4c5.6,2.3,11.2,4.5,16.8,6.5l-3.1,7.5c1.8,0.8,3.7,1.6,5.5,2.3l3.3-7.9
			c15.4,5,31.2,8.6,47.2,10.8l-2.5,12.3c1.9,0.5,3.9,0.9,5.8,1.3l2.6-12.9c10.6,1.2,21.4,1.9,32.3,1.9c5.4,0,10.7-0.1,16.1-0.5v18.2
			c2,0.1,4,0.2,5.9,0.3v-18.9c16.2-1.3,32.1-3.9,47.7-8l4.9,24.6c2-0.2,3.9-0.5,5.9-0.8l-5-25.4c11-3.1,21.8-6.9,32.4-11.4
			c4.4-1.9,8.6-3.8,12.9-5.9l12.7,30.6c1.9-0.6,3.8-1.2,5.7-1.9l-13-31.3c14.4-7.4,28.1-16,41-25.7l23.2,34.7c1.7-1,3.5-1.9,5.2-2.9
			l-23.7-35.5c8.4-6.6,16.5-13.8,24.2-21.5c3.8-3.8,7.5-7.7,11-11.7l36,36l0,0c1.5-1.3,3.1-2.6,4.6-3.8l-36.6-36.7
			c10.5-12.3,19.9-25.5,28.1-39.4l49.3,32.9l-4.6,6.9c3.1-3.6,6.1-7.3,9-11.1l-50.8-33.9c4.9-8.8,9.4-17.9,13.4-27.3
			c2.3-5.6,4.5-11.2,6.5-16.8l54.7,22.7l-12.3,29.7l-38-15.7l7.9-19l22,9.1l-3.1,7.5l-4.6-1.9l-5.5-2.3l-2.4,5.9l15.6,6.5l7.8-18.8
			l-33-13.7l-12.4,30l47.7,19.8c1.4-2.1,2.8-4.2,4.2-6.4l14-33.8l-60.6-25.1c5-15.4,8.6-31.1,10.8-47.2l58.1,11.6l-6.3,31.5l-40.4-8
			l4-20.2l23.3,4.6l-1.6,8l-4.9-1l-5.8-1.1l-1.2,6.2l16.6,3.3l4-20l-35.1-7l-6.3,31.8l52,10.3l8.6-43.2l-64.4-12.8
			c1.2-10.6,1.9-21.4,1.9-32.3c0-5.4-0.2-10.7-0.5-16.1h59.3v32.2h-41.2v-20.6h23.8v8.1h-10.9v6.3H683V348h-35.7v32.5h53.1v-44.1
			h-65.7c-1.3-16.2-3.9-32.1-8-47.7l58.1-11.6l6.3,31.6l-40.4,8l-4-20.2l23.3-4.7l1.6,8l-4.9,1l-5.8,1.2l1.3,6.2l16.6-3.3l-4-20
			l-35.1,7l6.3,31.8l52.1-10.3l-8.6-43.2l-64.3,12.8c-3.1-11-6.9-21.8-11.4-32.4c-1.9-4.3-3.8-8.6-5.9-12.9l54.8-22.7l12.3,29.7
			l-38,15.8l-7.9-19l22-9.1l3.1,7.5l-4.6,1.9l-5.5,2.3l2.4,5.9l15.6-6.5l-7.8-18.8l-33,13.7l12.4,30l49.1-20.3l-16.9-40.7
			l-60.6,25.1c-7.4-14.4-16-28.1-25.7-41l49.3-33l17.9,26.7L612.5,208l-11.4-17.1l19.8-13.2l4.5,6.7l-4.1,2.8l-4.9,3.3l3.5,5.3
			l14-9.4l-11.3-17l-29.7,19.8l18,27l44.1-29.5l-24.5-36.6l-54.6,36.5c-6.7-8.4-13.8-16.5-21.5-24.2c-3.8-3.8-7.7-7.5-11.7-11.1
			l41.9-41.9l22.7,22.7l-29.1,29.1l-14.5-14.5l16.8-16.8l5.7,5.7l-7.7,7.7l4.5,4.5l11.9-12l-14.4-14.4l-25.3,25.3l23,23l37.5-37.5
			L584.6,101l-46.4,46.4c-12.3-10.5-25.5-19.9-39.4-28.1l32.9-49.3l26.7,17.9l-22.9,34.2l-17.1-11.4L531.7,91l6.8,4.5l-2.8,4.1
			l-3.3,5l5.3,3.5l9.4-14.1l-17-11.3l-19.8,29.7l27,18l29.5-44.1l-36.6-24.5l-36.5,54.6c-8.8-4.9-17.9-9.4-27.3-13.4
			c-5.6-2.4-11.2-4.5-16.8-6.5l22.7-54.7l29.7,12.3l-15.8,38l-19-7.9l9.1-22l7.5,3.1l-1.9,4.6l-2.3,5.5l5.9,2.4l6.5-15.6L473,54.5
			l-13.7,33l30,12.4l20.3-49L468.9,34l-25.1,60.6c-15.4-5-31.2-8.6-47.2-10.8l11.6-58.2l31.5,6.3l-8,40.4l-20.2-4l4.7-23.3l8,1.6
			l-1,4.9l-1.2,5.8l6.2,1.3l3.3-16.6l-20-4l-7,35l31.8,6.3l10.3-52l-43.2-8.6l-12.8,64.4c-10.7-1.2-21.4-1.9-32.3-1.9
			c-5.4,0-10.8,0.1-16.1,0.5V22.4h32.2v41.2h-20.6V39.7h8.1v10.9h6.3V33.8H348v35.7h32.5V16.4h-44.1v65.7c-16.2,1.3-32.1,3.9-47.7,8
			L277.1,32l31.5-6.3l8,40.4l-20.2,4l-4.6-23.3l8-1.6l1,4.9l1.2,5.8l6.2-1.2l-3.3-16.6l-20,4l7,35.1l31.8-6.3l-10.4-52.1l-43.2,8.6
			l12.8,64.3c-11,3.1-21.8,6.9-32.4,11.4c-4.4,1.8-8.7,3.8-12.9,5.8l-22.7-54.7l29.7-12.3l15.8,38l-19,7.9l-9.1-22l7.5-3.1l1.9,4.6
			l2.3,5.5l5.9-2.4l-6.5-15.6l-18.9,7.8l13.7,33l30-12.4l-20.3-49l-23.7,9.8c-5.3,3.2-10.6,6.5-15.7,10L232.3,111.5z M358.4,90.9
			c147.5,0,267.5,120,267.5,267.5c0,147.5-120,267.5-267.5,267.5S90.9,505.9,90.9,358.4C90.9,210.9,210.9,90.9,358.4,90.9z"/>
		<path class="st2" d="M594.6,535.6l11.4-17.1l19.8,13.2l-4.5,6.7l-4.1-2.8l-4.9-3.3l-3.5,5.3l14.1,9.4l11.3-17l-29.7-19.8l-18,27
			l35.1,23.5c1.4-1.4,2.9-2.8,4.3-4.3L594.6,535.6z"/>
		<path class="st2" d="M456.4,637l19-7.9l5.3,12.7c1.9-0.5,3.8-1.1,5.7-1.6l-7.8-18.8l-30,12.4l5.9,14.2c2-0.4,4-0.8,5.9-1.2
			L456.4,637z"/>
		<path class="st2" d="M400.2,650.7l20.2-4l1.2,5.8c2-0.2,4-0.4,6-0.6l-2.4-12.2l-31.8,6.3l1.5,7.7c2,0,4.1,0,6.1-0.1L400.2,650.7z"
			/>
		<path class="st2" d="M208,104.3l-17.1,11.4l-13.2-19.8l6.8-4.5l2.8,4.1l3.3,5l5.3-3.5l-9.4-14.1l-17,11.3l19.9,29.7l27-18
			l-25.9-38.8c-1.6,1.2-3.1,2.5-4.7,3.7L208,104.3z"/>
		<path class="st2" d="M368.8,647.3h-32.5v1.7c10.6,1.8,21.5,3.2,32.5,3.9V647.3z"/>
		<path class="st2" d="M92.1,230.7l-7.9,19l-10.2-4.2c-0.5,1.9-1,3.9-1.4,5.9l14.8,6.1l12.4-30l-18.3-7.6c-0.6,1.9-1.3,3.8-1.9,5.7
			L92.1,230.7z"/>
		<path class="st2" d="M161.3,138.5l-14.5,14.5l-16.8-16.8l5.7-5.7l3.5,3.5l4.2,4.2l4.5-4.5l-12-11.9l-3.1,3.1
			c-3.3,4.3-6.5,8.6-9.6,13.1l23.5,23.5l23-22.9l-26.4-26.4c-1.3,1.5-2.6,3-3.8,4.5L161.3,138.5z"/>
		<path class="st2" d="M122.2,181.2l-11.4,17.1l-16.1-10.8c-0.8,1.8-1.7,3.6-2.5,5.5l20.2,13.5l18-27l-23.6-15.7
			c-1,1.7-2,3.5-2.9,5.2L122.2,181.2z"/>
		<path class="st2" d="M508.8,612.5l17.1-11.4l12.4,18.6c1.8-0.9,3.6-1.8,5.3-2.7l-16.1-24.1l-27,18l13.2,19.8
			c1.9-0.7,3.7-1.5,5.6-2.3L508.8,612.5z"/>
		<path class="st2" d="M95.5,178.3l-4.5,6.7l3.7,2.5c1.1-2.5,2.3-5,3.5-7.4L95.5,178.3z"/>
		<path class="st2" d="M38,305.3l4-20l16.6,3.3l-1.2,6.2l-5.8-1.2l-4.9-1l-1.6,8l19.9,4c0.4-6.9,1.1-13.8,2-20.6L32,277.1l-6.3,31.6
			l38.7,7.7c0-1.9,0.1-3.8,0.2-5.7L38,305.3z"/>
		<path class="st2" d="M33.8,368.8v-20.4h16.9v6.3H39.7v8.1h23.8v-20.6H22.4v32.2h45.5c-0.3-1.9-0.5-3.8-0.8-5.6H33.8z"/>
		<path class="st2" d="M82.7,186.7l11.3-17l7.1,4.7c0.9-1.8,1.9-3.6,2.9-5.4l-16-10.7l-17.9,26.7l19.8,13.2c0.7-1.8,1.5-3.5,2.3-5.3
			L82.7,186.7z"/>
		<path class="st2" d="M185.1,70.1l-26.7,17.9l3.1,4.6c7.7-7.6,15.8-14.9,24.2-21.7L185.1,70.1z"/>
		<path class="st2" d="M121.5,136.2l11.4-11.4c2.2-2.8,4.3-5.5,6.6-8.2l-7.2-7.2l-22.7,22.7l10.5,10.5c1.1-1.6,2.2-3.2,3.2-4.7
			L121.5,136.2z"/>
		<path class="st2" d="M54.5,243.8l7.8-18.9l15.6,6.5l-2.4,5.9L70,235l-4.6-1.9l-3.1,7.5l11.8,4.9c1.7-6.7,3.6-13.4,5.7-19.9
			l-25.7-10.6l-12.3,29.7l29.7,12.3c0.4-1.9,0.8-3.7,1.2-5.6L54.5,243.8z"/>
		<path class="st2" d="M532.4,625.4l6.8-4.5l-0.8-1.2c-2.5,1.2-4.9,2.4-7.4,3.5L532.4,625.4z"/>
		<path class="st2" d="M305.3,678.8l-20-4l3.3-16.6l6.2,1.2l-1.2,5.8l-1,4.9l8,1.6l4.6-23.3l-20.2-4l-8,40.4l31.5,6.3l9.1-45.8
			c-1.8-0.4-3.7-0.9-5.5-1.3L305.3,678.8z"/>
		<path class="st2" d="M628.9,558.5l13.3-19.9c-5.2,6.1-10.7,12.1-16.4,17.8L628.9,558.5z"/>
		<path class="st2" d="M665.9,509.6l-1.3-0.5c-4.3,6.3-8.7,12.5-13.4,18.5l3.8,2.5l-24.5,36.6l-9-6c-5,4.9-10.2,9.6-15.5,14.2
			l9.8,9.8l-31.2,31.2l-14.3-14.3c-5.4,3.5-10.8,6.8-16.4,9.9l12.8,19.1L530.1,655l-16.3-24.4c-5.4,2.2-10.8,4.1-16.3,6l12.1,29.3
			l-40.7,16.9L454.5,648c-5.1,1-10.3,1.8-15.5,2.6l7.8,39l-43.2,8.6l-8.8-44.3c-0.8,0-1.5,0-2.3,0c-4,0-8-0.1-12-0.2v46.8h-44.1V649
			c-4.3-0.7-8.6-1.6-12.8-2.5l-10.3,51.5l-43.2-8.6l10.4-52l29,5.8c-13.6-3.5-26.8-7.9-39.7-13.1l-21.8,52.7l-40.7-16.9l20.3-49
			l30,12.4l-13.7,33l-18.8-7.8l6.5-15.6l5.9,2.4l-2.3,5.5l-1.9,4.6l7.5,3.1l9.1-22l-19-7.9l-15.8,38l29.7,12.3l19.6-47.2
			c-15.3-6.5-30.1-14.1-44.1-22.8l-33.4,50l-36.6-24.5l29.5-44.1l27,18l-19.9,29.7l-17-11.3l9.4-14.1l5.3,3.5l-3.3,4.9l-2.8,4.1
			l6.7,4.5l13.2-19.8l-17.1-11.4l-22.9,34.2l26.7,17.9l30-44.9c-13.8-8.9-27-18.8-39.3-29.7l-43.6,43.6L101,584.6l37.5-37.5l23,22.9
			l-25.3,25.3l-14.4-14.4l12-11.9l4.5,4.5l-4.2,4.2l-3.5,3.5l5.7,5.7l16.8-16.8l-14.5-14.5l-29.1,29.1l22.7,22.7l39.2-39.2
			c-12.1-11.1-23.4-23-33.8-35.8l-51.3,34.3l-24.5-36.6l44.1-29.5l18,27l-29.7,19.9l-11.3-17l14.1-9.4l3.5,5.3l-4.9,3.3l-4.1,2.8
			l4.5,6.7l19.8-13.2l-11.4-17.1l-34.2,22.9l17.9,26.7l45.9-30.7c-10.2-13-19.3-26.7-27.5-41.1l-55.5,23L34,468.9l49-20.3l12.4,30
			l-33,13.7l-7.8-18.8l15.6-6.5l2.4,5.9l-5.5,2.3l-4.6,1.9l3.1,7.5l22-9.1l-7.9-19l-38,15.8l12.3,29.7l49.4-20.5
			c-7.9-14.6-14.7-29.9-20.3-45.8l-55.9,11.1l-8.6-43.2l52-10.3l6.3,31.8L42,432l-4-20l16.6-3.3l1.3,6.2L50,416l-4.9,1l1.6,8
			l23.3-4.6l-4-20.2l-40.4,8l6.3,31.5l49.2-9.8c-5.4-16-9.5-32.5-12.4-49.5H16.4v-44.1h48c-0.1-3.6-0.2-7.1-0.2-10.7
			c0-1.1,0-2.2,0-3.3l-45.6-9.1l8.6-43.2l40.4,8c0.7-5.1,1.6-10.2,2.6-15.2l-36.2-15l16.9-40.7l30.8,12.7c1.8-5.4,3.8-10.7,5.9-16
			l-25.8-17.2l24.5-36.6l20.6,13.7c3.1-5.4,6.3-10.8,9.7-16.1v0L101,132.2l31.2-31.2l11.1,11.1c4.5-5.2,9.1-10.3,13.9-15.2
			l-7.1-10.6l36.6-24.5l3.5,5.3c5.9-4.6,11.9-9,18.1-13.2l-1.2-3l17-7c21.2-12.7,43.9-23,67.8-30.7C129.7,44.3,6.9,187.3,6.9,358.4
			C6.9,552.2,164.6,710,358.4,710c166.5,0,306.3-116.3,342.5-272c-8.3,22.9-19.1,44.5-32.1,64.7L665.9,509.6z"/>
		<path class="st2" d="M580.9,595l-0.4-0.4l0,0c-1.7,1.2-3.4,2.4-5.1,3.5l9.2,9.2l22.7-22.7l-6-6c-5.9,4.9-12,9.5-18.2,14L580.9,595
			z"/>
		<path class="st2" d="M368.8,683h-20.4v-16.9h6.3v10.9h8.1v-23.8h-20.6v41.2h32.2v-41.1c-1.9-0.1-3.8-0.2-5.7-0.4V683z"/>
		<path class="st2" d="M492.3,654.3l-18.8,7.8l-6.5-15.6l5.9-2.4l2.3,5.5l1.9,4.6l7.5-3.1l-3.8-9.3c-6.6,1.9-13.4,3.5-20.2,5
			l11.7,28.2l29.7-12.3l-10-24.2c-1.8,0.6-3.6,1.1-5.4,1.7L492.3,654.3z"/>
		<path class="st2" d="M547.4,622.5l-17,11.3l-5.3-8c-1.9,0.8-3.8,1.7-5.7,2.5l12.3,18.4l26.7-17.9l-9.7-14.6
			c-1.7,0.9-3.3,1.8-5,2.7L547.4,622.5z"/>
		<path class="st2" d="M432,674.8l-20,4l-3.3-16.6l6.2-1.2l1.1,5.8l1,4.9l8-1.6l-3.5-17.5c-6.8,0.6-13.8,1-20.7,1.2l7.4,37.4
			l31.5-6.3l-6.7-33.5c-1.9,0.2-3.7,0.5-5.6,0.7L432,674.8z"/>
		<path class="st3" d="M358.4,710C164.6,710,6.9,552.2,6.9,358.4c0-171.1,122.9-314.1,285.1-345.3h0c16.3-5.2,33.1-9.2,50.4-11.9
			C299.7,3.1,258.4,12.4,219.2,29c-42.6,18-80.8,43.8-113.6,76.6C72.8,138.4,47,176.7,29,219.2C10.3,263.3,0.9,310.1,0.9,358.4
			s9.5,95.1,28.1,139.2c18,42.6,43.8,80.8,76.6,113.6c32.8,32.8,71.1,58.6,113.6,76.6c44.1,18.7,90.9,28.1,139.2,28.1
			c48.3,0,95.1-9.5,139.2-28.1c42.6-18,80.8-43.8,113.6-76.6c32.8-32.8,58.6-71.1,76.6-113.6c14.8-35.1,23.9-71.8,26.9-109.7
			c-3.3,17.3-8,34-13.9,50.2C664.7,593.6,524.9,710,358.4,710z"/>
		<path class="st3" d="M417,671.6l-1-4.9l-1.1-5.8l-6.2,1.2l3.3,16.6l20-4l-4.5-22.8c-2,0.2-4,0.4-6,0.6l3.5,17.5L417,671.6z"/>
		<path class="st3" d="M439.7,684.8l-31.5,6.3l-7.4-37.4c-2,0.1-4,0.1-6.1,0.1l8.8,44.3l43.2-8.6l-7.8-39c-2,0.3-3.9,0.5-5.9,0.8
			L439.7,684.8z"/>
		<path class="st3" d="M374.5,694.4h-32.2v-41.2h20.6v23.8h-8.1v-10.9h-6.3V683h20.4V653c-11-0.8-21.8-2.1-32.5-3.9v51.3h44.1v-46.8
			c-2-0.1-4-0.1-5.9-0.3V694.4z"/>
		<path class="st3" d="M25.7,308.6l6.3-31.6l34.9,6.9c0.2-2,0.5-3.9,0.8-5.9l-40.4-8l-8.6,43.2l45.6,9.1c0-2,0-4,0.1-6L25.7,308.6z"
			/>
		<path class="st3" d="M22.4,374.5v-32.2h41.2v20.6H39.7v-8.1h10.9v-6.3H33.8v20.4h33.3c-1.4-10.7-2.3-21.5-2.7-32.5h-48v44.1h52.4
			c-0.3-2-0.7-4-0.9-6H22.4z"/>
		<path class="st3" d="M477,654.2l-1.9-4.6l-2.3-5.5l-5.9,2.4l6.5,15.6l18.8-7.8l-5.9-14.2c-1.9,0.6-3.8,1.1-5.7,1.6l3.8,9.3
			L477,654.2z"/>
		<path class="st3" d="M308.6,691.1l-31.5-6.3l8-40.4l20.2,4l-4.6,23.3l-8-1.6l1-4.9l1.2-5.8l-6.2-1.2l-3.3,16.6l20,4l6.9-34.9
			c-1-0.2-1.9-0.5-2.8-0.7l-29-5.8l-10.4,52l43.2,8.6l10.3-51.5c-1.9-0.4-3.9-0.8-5.8-1.3L308.6,691.1z"/>
		<path class="st3" d="M501.9,662.7L472.1,675l-11.7-28.2c-2,0.4-4,0.8-5.9,1.2l14.4,34.8l40.7-16.9l-12.1-29.3
			c-1.9,0.7-3.8,1.3-5.7,1.9L501.9,662.7z"/>
		<path class="st3" d="M583.2,592.7c-0.9,0.7-1.8,1.3-2.7,1.9l0.4,0.4L583.2,592.7z"/>
		<path class="st3" d="M208.4,53.9c5.1-3.5,10.4-6.8,15.7-10l-17,7L208.4,53.9z"/>
		<path class="st3" d="M628.9,558.5l-3.1-2.1c-1.4,1.4-2.9,2.9-4.3,4.3l9,6l24.5-36.6l-3.8-2.5c-2.9,3.8-6,7.5-9,11.1L628.9,558.5z"
			/>
		<path class="st3" d="M665.9,509.6l2.9-6.9c-1.4,2.1-2.8,4.3-4.2,6.4L665.9,509.6z"/>
		<path class="st3" d="M532.4,625.4l-1.4-2.2c-1.9,0.9-3.9,1.8-5.9,2.7l5.3,8l17-11.3l-3.7-5.6c-1.8,0.9-3.5,1.8-5.3,2.7l0.8,1.2
			L532.4,625.4z"/>
		<path class="st3" d="M601.4,578.7l6,6l-22.7,22.7l-9.2-9.2v0c-1.7,1.1-3.4,2.2-5.1,3.3l14.3,14.3l31.2-31.2l-9.8-9.8
			C604.5,576.1,603,577.4,601.4,578.7L601.4,578.7z"/>
		<path class="st3" d="M558.5,628.9l-26.7,17.9l-12.3-18.4c-1.9,0.8-3.7,1.6-5.6,2.3l16.3,24.4l36.6-24.5l-12.8-19.1
			c-1.7,1-3.5,2-5.2,2.9L558.5,628.9z"/>
		<path class="st3" d="M41.8,244.6l12.3-29.7l25.7,10.6c0.6-1.9,1.2-3.8,1.9-5.7l-30.8-12.7L34,247.9l36.2,15c0.4-2,0.8-4,1.2-5.9
			L41.8,244.6z"/>
		<path class="st3" d="M132.2,607.4l-22.7-22.7l29.1-29.1l14.5,14.5l-16.8,16.8l-5.7-5.7l3.5-3.5l4.2-4.2l-4.5-4.5l-12,11.9
			l14.4,14.4l25.3-25.3l-23-22.9L101,584.6l31.2,31.2l43.6-43.6c-1.5-1.3-3-2.6-4.4-4L132.2,607.4z"/>
		<path class="st3" d="M158.3,87.9l26.7-17.9l0.5,0.8c1.5-1.3,3.1-2.5,4.7-3.7l-3.5-5.3l-36.6,24.5l7.1,10.6
			c1.4-1.5,2.8-2.9,4.3-4.3L158.3,87.9z"/>
		<path class="st3" d="M46.6,292.7l4.9,1l5.8,1.2l1.2-6.2l-16.6-3.3l-4,20l26.6,5.3c0.1-2,0.2-4,0.3-6l-19.9-4L46.6,292.7z"/>
		<path class="st3" d="M87.9,558.5l-17.9-26.7l34.2-22.9l11.4,17.1l-19.8,13.2l-4.5-6.7l4.1-2.8l4.9-3.3l-3.5-5.3l-14.1,9.4l11.3,17
			l29.7-19.9l-18-27l-44.1,29.5l24.5,36.6l51.3-34.3c-1.3-1.5-2.5-3.1-3.7-4.7L87.9,558.5z"/>
		<path class="st3" d="M185.1,646.7l-26.7-17.9l22.9-34.2l17.1,11.4l-13.2,19.8l-6.7-4.5l2.8-4.1l3.3-4.9l-5.3-3.5l-9.4,14.1
			l17,11.3l19.9-29.7l-27-18l-29.5,44.1l36.6,24.5l33.4-50c-1.7-1-3.4-2.1-5-3.2L185.1,646.7z"/>
		<path class="st3" d="M54.1,501.8l-12.3-29.7l38-15.8l7.9,19l-22,9.1l-3.1-7.5l4.6-1.9l5.5-2.3l-2.4-5.9l-15.6,6.5l7.8,18.8
			l33-13.7l-12.4-30l-49,20.3l16.9,40.7l55.5-23c-1-1.7-2-3.5-2.9-5.2L54.1,501.8z"/>
		<path class="st3" d="M32,439.7l-6.3-31.5l40.4-8l4,20.2L46.7,425l-1.6-8l4.9-1l5.9-1.2l-1.3-6.2L38,411.9l4,20l35.1-7l-6.3-31.8
			l-52,10.3l8.6,43.2l55.9-11.1c-0.7-1.9-1.3-3.8-2-5.7L32,439.7z"/>
		<path class="st3" d="M95.5,178.3l2.7,1.8c0.9-1.9,1.9-3.8,2.9-5.7l-7.1-4.7l-11.3,17l9.5,6.3c0.8-1.9,1.7-3.7,2.5-5.5l-3.7-2.5
			L95.5,178.3z"/>
		<path class="st3" d="M109.4,132.2l22.7-22.7l7.2,7.2c1.3-1.5,2.6-3.1,3.8-4.5L132.2,101L101,132.2l15.6,15.6
			c1.1-1.7,2.2-3.4,3.3-5.1L109.4,132.2z"/>
		<path class="st3" d="M244.7,675l-29.7-12.3l15.8-38l19,7.9l-9.1,22l-7.5-3.1l1.9-4.6l2.3-5.5l-5.9-2.4l-6.5,15.6l18.8,7.8l13.7-33
			l-30-12.4l-20.3,49l40.7,16.9l21.8-52.7c-1.8-0.7-3.7-1.5-5.5-2.3L244.7,675z"/>
		<path class="st3" d="M65.4,233.1L70,235l5.5,2.3l2.4-5.9l-15.6-6.5l-7.8,18.9l18.2,7.5c0.5-2,0.9-3.9,1.4-5.9l-11.8-4.9
			L65.4,233.1z"/>
		<path class="st3" d="M123.2,137.9c3.1-4.4,6.3-8.8,9.6-13.1l-11.4,11.4L123.2,137.9z"/>
		<path class="st3" d="M70.1,185.1l17.9-26.7l16,10.7c1-1.7,1.9-3.5,2.9-5.2l-20.6-13.7l-24.5,36.6l25.8,17.2
			c0.7-1.9,1.5-3.8,2.3-5.6L70.1,185.1z"/>
	</g>
	<g>
		<g>
			<g>
				<g>
					<polyline class="st4" points="380.4,634.7 380.4,700.4 336.4,700.4 336.4,647.3 368.8,647.3 368.8,683 348.4,683 348.4,666.1 
						354.8,666.1 354.8,677.1 362.9,677.1 362.9,653.3 342.3,653.3 342.3,694.4 374.5,694.4 374.5,635.1 					"/>
				</g>
				<g>
					<polyline class="st4" points="336.4,82.1 336.4,16.4 380.4,16.4 380.4,69.5 348,69.5 348,33.8 368.4,33.8 368.4,50.7 362,50.7 
						362,44.7 362,39.7 353.9,39.7 353.9,63.5 374.5,63.5 374.5,22.4 342.3,22.4 342.3,81.7 					"/>
				</g>
				<g>
					<polyline class="st4" points="81.7,374.5 22.4,374.5 22.4,342.3 63.5,342.3 63.5,362.9 39.7,362.9 39.7,354.8 50.7,354.8 
						50.7,348.4 33.8,348.4 33.8,368.8 69.5,368.8 69.5,336.4 16.4,336.4 16.4,380.4 82.1,380.4 					"/>
				</g>
				<g>
					<polyline class="st4" points="634.7,336.4 700.4,336.4 700.4,380.4 647.3,380.4 647.3,348 683,348 683,368.4 666.1,368.4 
						666.1,362 672.1,362 677.1,362 677.1,353.9 653.3,353.9 653.3,374.5 694.4,374.5 694.4,342.3 635.1,342.3 					"/>
				</g>
				<g>
					<polyline class="st4" points="174.1,565.4 132.2,607.4 109.4,584.6 138.5,555.5 153.1,570.1 136.2,586.9 130.5,581.2 
						134,577.6 138.2,573.4 133.7,568.9 121.8,580.9 136.2,595.3 161.5,570.1 138.5,547.1 101,584.6 132.2,615.8 178.6,569.3 					
						"/>
				</g>
				<g>
					<polyline class="st4" points="538.2,147.4 584.6,101 615.8,132.2 578.3,169.7 555.3,146.7 580.6,121.5 595,135.9 583.1,147.9 
						578.6,143.4 582.8,139.2 586.3,135.6 580.6,129.9 563.7,146.7 578.3,161.3 607.4,132.2 584.6,109.4 542.7,151.4 					"/>
				</g>
				<g>
					<polyline class="st4" points="147.4,178.6 101,132.2 132.2,101 169.7,138.5 146.7,161.5 121.5,136.2 135.9,121.8 147.9,133.7 
						143.4,138.2 139.2,134 135.6,130.5 129.9,136.2 146.7,153.1 161.3,138.5 132.2,109.4 109.4,132.2 151.4,174.1 					"/>
				</g>
				<g>
					<polyline class="st4" points="569.4,538.2 615.8,584.6 584.6,615.8 547.1,578.3 570.1,555.3 595.3,580.6 580.9,595 
						568.9,583.1 573.4,578.6 577.6,582.8 581.2,586.3 586.9,580.6 570.1,563.7 555.5,578.3 584.6,607.4 607.4,584.6 565.4,542.7 
											"/>
				</g>
				<g>
					<polyline class="st4" points="484.5,605.3 509.6,665.9 468.9,682.8 448.6,633.7 478.6,621.3 492.3,654.3 473.4,662.1 
						466.9,646.5 472.8,644.1 475.1,649.6 477,654.2 484.5,651.1 475.4,629.1 456.4,637 472.1,675 501.8,662.7 479.2,607.9 					"/>
				</g>
				<g>
					<polyline class="st4" points="232.3,111.5 207.2,50.9 247.9,34 268.2,83.1 238.2,95.5 224.5,62.5 243.4,54.6 249.9,70.3 
						244,72.7 241.7,67.2 239.8,62.6 232.3,65.7 241.4,87.7 260.4,79.8 244.7,41.8 214.9,54.1 237.6,108.9 					"/>
				</g>
				<g>
					<polyline class="st4" points="108.8,479.2 54.1,501.8 41.8,472.1 79.8,456.4 87.7,475.4 65.7,484.5 62.6,477 67.2,475.1 
						72.7,472.8 70.3,466.9 54.7,473.4 62.5,492.3 95.5,478.6 83.1,448.6 34,468.9 50.9,509.6 111.5,484.5 					"/>
				</g>
				<g>
					<polyline class="st4" points="605.3,232.3 665.9,207.2 682.8,247.9 633.7,268.2 621.3,238.2 654.3,224.5 662.1,243.4 
						646.5,249.9 644.1,244 649.6,241.7 654.2,239.8 651.1,232.3 629.1,241.4 637,260.4 675,244.7 662.7,214.9 607.9,237.6 					"/>
				</g>
				<g>
					<polyline class="st4" points="267.3,620.3 244.7,675 214.9,662.7 230.7,624.7 249.7,632.5 240.6,654.5 233.1,651.4 235,646.8 
						237.3,641.3 231.4,638.9 224.9,654.5 243.8,662.3 257.5,629.3 227.5,616.9 207.2,665.9 247.9,682.8 273,622.2 					"/>
				</g>
				<g>
					<polyline class="st4" points="443.8,94.6 468.9,34 509.6,50.9 489.3,99.9 459.3,87.5 473,54.5 491.9,62.3 485.4,77.9 
						479.5,75.5 481.8,70 483.7,65.4 476.2,62.3 467.1,84.3 486.1,92.1 501.8,54.1 472.1,41.8 449.5,96.5 449.5,96.5 					"/>
				</g>
				<g>
					<polyline class="st4" points="94.6,273 34,247.9 50.9,207.2 99.9,227.5 87.5,257.5 54.5,243.8 62.3,224.9 77.9,231.4 
						75.5,237.3 70,235 65.4,233.1 62.3,240.6 84.3,249.7 92.1,230.7 54.1,214.9 41.8,244.7 96.5,267.3 					"/>
				</g>
				<g>
					<polyline class="st4" points="622.2,443.8 682.8,468.9 665.9,509.6 616.9,489.3 629.3,459.3 662.3,473 654.5,491.9 
						638.9,485.4 641.3,479.5 646.8,481.8 651.4,483.7 654.5,476.2 632.5,467.1 624.7,486.1 662.7,501.8 675,472.1 620.3,449.5 
											"/>
				</g>
				<g>
					<polyline class="st4" points="433.9,625.2 446.7,689.5 403.5,698.1 393.1,646 425,639.7 432,674.8 411.9,678.7 408.6,662.2 
						414.9,660.9 416,666.8 417,671.6 425,670.1 420.3,646.7 400.1,650.7 408.2,691.1 439.7,684.8 428.2,626.7 					"/>
				</g>
				<g>
					<polyline class="st4" points="282.9,91.6 270.1,27.3 313.3,18.7 323.6,70.7 291.8,77.1 284.8,42 304.9,38.1 308.2,54.6 
						301.9,55.9 300.8,50 299.8,45.2 291.8,46.7 296.5,70.1 316.6,66.1 308.6,25.7 277.1,32 288.6,90.1 					"/>
				</g>
				<g>
					<polyline class="st4" points="90.1,428.2 32,439.7 25.7,408.2 66.1,400.1 70.1,420.3 46.7,425 45.2,417 50,416 55.9,414.9 
						54.6,408.6 38.1,411.9 42,432 77.1,425 70.7,393.1 18.7,403.5 27.3,446.7 91.6,433.9 					"/>
				</g>
				<g>
					<polyline class="st4" points="625.2,282.9 689.5,270.1 698.1,313.3 646,323.6 639.7,291.8 674.8,284.8 678.7,304.9 
						662.2,308.1 660.9,301.9 666.8,300.8 671.6,299.8 670.1,291.8 646.7,296.5 650.7,316.6 691.1,308.6 684.8,277.1 626.7,288.6 
											"/>
				</g>
				<g>
					<polyline class="st4" points="218,597.4 185.1,646.7 158.3,628.9 181.2,594.6 198.3,606 185.1,625.8 178.3,621.3 181.1,617.2 
						184.4,612.2 179.1,608.7 169.7,622.8 186.7,634.1 206.6,604.4 179.6,586.4 150.1,630.5 186.7,655 223.2,600.4 					"/>
				</g>
				<g>
					<polyline class="st4" points="493.6,116.4 530.1,61.8 566.7,86.3 537.2,130.4 510.2,112.4 530.1,82.7 547.1,94 537.7,108.1 
						532.4,104.5 535.7,99.6 538.5,95.5 531.7,90.9 518.5,110.7 535.6,122.2 558.5,87.9 531.7,70.1 498.8,119.3 					"/>
				</g>
				<g>
					<polyline class="st4" points="116.4,223.2 61.8,186.7 86.3,150.1 130.4,179.6 112.4,206.6 82.7,186.7 94,169.7 108.1,179.1 
						104.5,184.4 99.6,181.1 95.5,178.3 91,185.1 110.7,198.3 122.2,181.2 87.9,158.3 70.1,185.1 119.3,218 					"/>
				</g>
				<g>
					<polyline class="st4" points="600.4,493.6 655,530.1 630.5,566.7 586.4,537.2 604.4,510.2 634.1,530.1 622.8,547.1 
						608.7,537.7 612.3,532.4 617.2,535.7 621.3,538.5 625.8,531.7 606,518.5 594.6,535.6 628.9,558.5 646.7,531.7 597.5,498.8 
											"/>
				</g>
				<g>
					<polyline class="st4" points="530.2,575.9 566.7,630.5 530.1,655 500.6,610.9 527.6,592.8 547.4,622.5 530.5,633.9 
						521.1,619.8 526.3,616.3 529.7,621.2 532.4,625.4 539.2,620.9 525.9,601.1 508.8,612.5 531.7,646.7 558.5,628.9 525.5,579.6 
											"/>
				</g>
				<g>
					<polyline class="st4" points="186.6,140.9 150.1,86.3 186.7,61.8 216.2,105.9 189.2,124 169.4,94.3 186.3,82.9 195.7,97 
						190.4,100.5 187.1,95.6 184.4,91.4 177.6,95.9 190.9,115.7 208,104.3 185.1,70.1 158.3,87.9 191.3,137.2 					"/>
				</g>
				<g>
					<polyline class="st4" points="137.2,525.5 87.9,558.5 70.1,531.7 104.3,508.8 115.7,525.9 95.9,539.2 91.4,532.4 95.6,529.7 
						100.5,526.3 97,521.1 82.9,530.5 94.3,547.4 124,527.6 105.9,500.6 61.8,530.1 86.3,566.7 140.9,530.2 					"/>
				</g>
				<g>
					<polyline class="st4" points="575.9,186.6 630.5,150.1 655,186.7 610.9,216.2 592.8,189.2 622.5,169.4 633.9,186.3 
						619.8,195.7 616.3,190.4 621.2,187.1 625.4,184.4 620.9,177.6 601.1,190.9 612.5,208 646.7,185.1 628.9,158.3 579.6,191.3 
											"/>
				</g>
				<g>
					<polyline class="st4" points="320.2,633 308.6,691.1 277.1,684.8 285.1,644.4 305.3,648.5 300.6,671.8 292.7,670.2 
						293.6,665.3 294.8,659.5 288.6,658.3 285.3,674.8 305.3,678.8 312.3,643.8 280.4,637.4 270.1,689.5 313.3,698.1 326.1,633.7 
											"/>
				</g>
				<g>
					<polyline class="st4" points="390.7,83.1 403.5,18.7 446.7,27.3 436.4,79.3 404.5,73 411.5,38 431.5,41.9 428.2,58.5 422,57.3 
						423.2,51.4 424.1,46.6 416.2,45 411.5,68.3 431.7,72.3 439.7,32 408.2,25.7 396.6,83.8 					"/>
				</g>
				<g>
					<polyline class="st4" points="83.1,326.1 18.7,313.3 27.3,270.1 79.3,280.4 73,312.3 38,305.3 41.9,285.3 58.5,288.6 
						57.3,294.8 51.4,293.6 46.6,292.7 45,300.6 68.3,305.3 72.3,285.1 32,277.1 25.7,308.6 83.8,320.2 					"/>
				</g>
				<g>
					<polyline class="st4" points="633.7,390.7 698.1,403.5 689.5,446.7 637.5,436.4 643.8,404.5 678.8,411.5 674.8,431.5 
						658.3,428.2 659.5,422 665.3,423.2 670.2,424.1 671.8,416.2 648.5,411.5 644.4,431.7 684.8,439.7 691.1,408.2 633,396.6 					
						"/>
				</g>
			</g>
			<g>
				<path class="st5" d="M687.8,219.2c-18-42.6-43.8-80.8-76.6-113.6C578.4,72.8,540.1,47,497.6,29C453.5,10.4,406.7,0.9,358.4,0.9
					c-48.3,0-95.1,9.5-139.2,28.1c-42.6,18-80.8,43.8-113.6,76.6C72.8,138.4,47,176.7,29,219.2C10.4,263.3,0.9,310.1,0.9,358.4
					c0,48.3,9.5,95.1,28.1,139.2c18,42.6,43.8,80.8,76.6,113.6c32.8,32.8,71.1,58.6,113.6,76.6c44.1,18.6,90.9,28.1,139.2,28.1
					c48.3,0,95.1-9.5,139.2-28.1c42.6-18,80.8-43.8,113.6-76.6c32.8-32.8,58.6-71.1,76.6-113.6c18.6-44.1,28.1-90.9,28.1-139.2
					C715.9,310.1,706.4,263.3,687.8,219.2z"/>
			</g>
			<g>
				<path class="st4" d="M81.7,374.5c-0.3-5.3-0.5-10.7-0.5-16.1c0-10.9,0.6-21.7,1.9-32.3 M82.1,380.4c1.3,16.2,3.9,32.1,8,47.7
					 M91.6,433.9c3.1,11,6.9,21.8,11.4,32.4c1.8,4.4,3.8,8.7,5.8,12.9 M111.5,484.5c7.4,14.4,16,28.1,25.7,41 M140.9,530.2
					c6.7,8.4,13.8,16.5,21.5,24.2c3.8,3.8,7.7,7.5,11.7,11.1 M178.6,569.3c12.3,10.5,25.5,19.9,39.4,28.1 M223.2,600.4
					c8.8,4.9,17.9,9.4,27.3,13.4c5.6,2.4,11.2,4.5,16.8,6.5 M600.4,493.6c4.9-8.8,9.4-17.9,13.4-27.3c2.4-5.6,4.5-11.2,6.5-16.8
					 M622.2,443.8c5-15.4,8.6-31.1,10.8-47.2 M635.1,342.3c0.3,5.3,0.5,10.7,0.5,16.1c0,10.9-0.6,21.6-1.9,32.3 M626.7,288.6
					c4.1,15.6,6.7,31.5,8,47.7 M607.9,237.6c2.1,4.2,4,8.5,5.8,12.9c4.5,10.6,8.3,21.4,11.4,32.4 M579.6,191.3
					c9.8,12.9,18.4,26.6,25.7,41 M542.7,151.4c4,3.6,7.9,7.2,11.7,11c7.7,7.7,14.9,15.7,21.5,24.2 M498.8,119.3
					c13.9,8.2,27.1,17.6,39.4,28.1 M449.5,96.5L449.5,96.5c5.7,2,11.3,4.1,16.8,6.5c9.4,4,18.5,8.4,27.3,13.4 M396.6,83.8
					c16,2.2,31.8,5.8,47.2,10.8 M342.3,81.7c5.3-0.3,10.7-0.5,16.1-0.5c10.9,0,21.6,0.6,32.3,1.9 M288.6,90.1
					c15.6-4,31.5-6.7,47.7-8 M569.4,538.2c10.5-12.3,19.9-25.5,28.1-39.4 M530.2,575.9c8.4-6.7,16.5-13.8,24.2-21.5
					c3.8-3.8,7.5-7.7,11-11.7 M484.5,605.3c14.4-7.4,28.1-16,41-25.7 M433.9,625.2c11-3.1,21.8-6.9,32.4-11.4
					c4.4-1.8,8.7-3.8,12.9-5.8 M380.4,634.7c16.2-1.3,32.1-3.9,47.7-8 M326.1,633.7c10.7,1.2,21.4,1.9,32.3,1.9
					c5.4,0,10.7-0.1,16.1-0.5 M273,622.2c15.4,5,31.1,8.6,47.2,10.8 M83.8,320.2c2.2-16,5.8-31.8,10.8-47.2 M96.5,267.3
					c2-5.7,4.1-11.3,6.5-16.8c4-9.4,8.4-18.5,13.4-27.3 M119.3,218c8.2-13.9,17.6-27.1,28.1-39.4 M151.4,174.1
					c3.6-4,7.2-7.9,11-11.7c7.7-7.7,15.7-14.9,24.2-21.5 M191.3,137.2c12.9-9.8,26.6-18.4,41-25.7 M237.6,108.9
					c4.2-2.1,8.5-4,12.9-5.8c10.6-4.5,21.4-8.3,32.4-11.4"/>
			</g>
			
				<ellipse transform="matrix(0.7071 -0.7071 0.7071 0.7071 -148.4532 358.3979)" class="st4" cx="358.4" cy="358.4" rx="351.5" ry="351.5"/>
		</g>
		
			<ellipse transform="matrix(0.7071 -0.7071 0.7071 0.7071 -148.4533 358.3979)" class="st5" cx="358.4" cy="358.4" rx="267.5" ry="267.5"/>
	</g>
</g>
</svg>
