<?xml version="1.0" encoding="utf-8"?>
<!-- Generator: Adobe Illustrator 27.9.5, SVG Export Plug-In . SVG Version: 9.03 Build 54986)  -->
<svg version="1.1" id="Calque_1" xmlns="http://www.w3.org/2000/svg" xmlns:xlink="http://www.w3.org/1999/xlink" x="0px" y="0px"
	 viewBox="0 0 770.5 216.5" style="enable-background:new 0 0 770.5 216.5;" xml:space="preserve">
<style type="text/css">
	.st0{fill:#F7BC5C;}
	.st1{fill:#FEBB46;}
</style>
<g>
	<path class="st0" d="M7.5,216.5h82.6c75.9-69.2,176.7-110.4,279.3-114.1c104.2-3.8,209.4,31.2,290.6,96.6
		c6.3,5,12.7,10.9,17.3,17.5h91.4c-3.2-8-8.9-14.9-16.9-18.3c-8.5-3.6-19.5-4.1-24.1-12.1c-6.2-10.8,5.2-26.9-3.2-36.2
		c-9.9-10.9-30.1,5.2-42.2-3.2c-11.9-8.3-2.3-29.9-12.6-40.1c-12.6-12.5-37.4,6.7-50.7-5c-6.7-5.9-6.2-16.3-9.3-24.7
		c-5-13.3-19.6-20.9-33.8-21.9c-14.1-0.9-28,3.5-41.5,7.9c1.8-22.4-22.4-42.7-44.1-37c-16.9,4.4-33.3,21.1-48.8,13.2
		C427,31.6,426.7,6.4,410.6,2.1c-21.5-5.8-33.4,33.6-55.5,31.1c-17.5-1.9-25.6-29.4-43.2-27.4c-19,2.2-19,35.7-37.6,40.3
		c-14.6,3.7-25.9-13.5-40.5-17.1c-12.9-3.2-26.4,5.2-33.4,16.5c-7,11.3-8.9,24.9-10.7,38.1c-10.6-8.6-21.8-17.4-35.2-19.9
		c-13.4-2.4-29.5,4.1-32.8,17.3c-2.7,10.8,2.9,24.5-5.2,32.2c-13.2,12.6-36.5-12.7-51.7-2.8c-9.1,5.9-7.6,19.5-5.2,30.1
		c2.4,10.6,3.1,24.5-6.5,29.5c-9.8,5.2-21.5-3.7-32.5-2.5c-12.2,1.3-19.9,15.1-19,27.4C2,201.2,4.4,209,7.5,216.5z"/>
	<g>
		<path d="M635,178.4c-64.5-44.3-140.9-71-219-76.7c-76.9-5.6-154.7,10.1-224,44c-34.2,16.7-66.4,37.8-95.1,62.8
			c-2.9,2.5-5.8,5.2-8.6,8h4.2c3.4-3.1,6.9-6.2,10.4-9.2c14.7-12.5,30.3-23.9,46.5-34.3c64.5-41.2,139.8-65.6,216.3-69
			c78.5-3.5,157.7,15,226.9,52.1c17.1,9.2,33.6,19.5,49.3,30.8c8.1,5.8,16.2,11.8,23.5,18.5c3.6,3.3,7.2,7,10.2,11h3.3
			C668.1,200.7,647.5,187,635,178.4z"/>
		<path d="M5.9,216.5h3.2c-2.9-6.9-5.4-14.1-6-21.5c-0.7-10.1,4.5-22.3,14.9-25.3c10.7-3.2,21,5.5,31.8,3.2
			c9.2-1.9,12.7-11,12.8-19.5c0.1-10-4.1-19.6-3.2-29.6c0.5-5.4,2.8-10.7,8.1-13c3.8-1.7,8.1-1.3,12-0.3c7.9,1.9,15.2,6,23.2,7.5
			c7.1,1.3,14.2-0.7,17.7-7.5c4.6-8.9,0.3-19.6,2.7-29c3-11.9,16.6-17.4,27.9-16.6c14.5,1,26.8,11.1,37.6,19.8
			c0.8,0.6,2.3,0.6,2.5-0.7c2.7-20.1,7.2-46.3,29.9-53.1c9.8-2.9,18.1,1.1,26.1,6.5c6.5,4.4,13.3,9.9,21.4,10.7
			c13.7,1.2,20.4-11.9,25.7-22.3c2.8-5.4,5.6-11.5,10.5-15.4c5.8-4.6,13-3.8,18.8,0.2c10.4,7.4,17,21.9,30.8,23.9
			c12.7,1.9,22.3-9.2,30.2-17.5c8.1-8.4,20.4-20.4,32.1-10.2c10.4,9.1,11.2,25.9,23.8,33.1c18.2,10.4,36.3-10.7,53.7-13.2
			c20.4-3,40.5,15.8,39.2,36.2c-0.1,0.9,1,1.7,1.9,1.4c15.7-5.1,32.8-10.8,49.4-6.5c6.4,1.7,12.6,4.8,17.4,9.4
			c5.1,5,7.3,11,8.8,17.9c2.2,10.3,5.6,20.3,17.5,21.7c10.4,1.3,20.5-3.7,30.9-3.2c26.1,1.3,4.7,40.8,27.7,46.5
			c10.2,2.5,20-3.8,30.1-2.6c14.7,1.8,7.9,19.9,7.6,29.3c-0.1,5.1,1.2,10.1,5.1,13.6c4.1,3.7,9.8,5.1,15,6.7
			c6.1,1.8,11.6,4.1,16.1,8.9c2.8,3,5,6.5,6.5,10.3h3.2c-1.3-3.5-3.1-6.8-5.4-9.8c-3.3-4.3-7.6-7.8-12.6-9.9
			c-5.9-2.5-12.7-3.2-18.2-6.5c-12.6-7.6-3.1-23-5-34.2c-1.9-11.1-12.7-12.3-21.9-10.6c-10.6,1.9-25.3,6.3-28.9-8
			c-2.5-9.9,0.7-22-6.1-30.5c-14.4-17.9-47.9,12-56.5-14c-2-6-2.4-12.4-5-18.2c-2.5-5.5-6.6-10-11.5-13.4c-11.5-8-25.8-9-39.3-6.7
			c-8,1.4-15.8,3.8-23.6,6.3c0-15.7-11.3-29.7-25.8-35.1c-8.1-3-16.5-2.9-24.6,0.1c-9.2,3.4-17.4,9.3-26.8,12.3c-9.3,3-18,1-24-7
			c-4.4-5.9-6.9-12.9-10.7-19.1c-3.4-5.5-7.9-10.4-14.5-11.8c-5.7-1.2-11.1,0.6-15.8,3.8c-10.8,7.4-17.6,20.5-29.7,25.9
			c-15.6,7-25.8-10.1-35.6-19c-4.7-4.2-10.3-7.5-16.9-6.8c-5.7,0.6-10.1,4-13.5,8.5c-7.4,9.7-10.7,27.8-23.8,31.7
			c-9,2.7-17.2-3.7-24.2-8.5c-7.1-4.9-14.8-9.7-23.8-9.1c-20.9,1.3-31.9,21.7-35.7,39.8c-1,4.7-1.7,9.4-2.3,14.1
			c-16.2-12.9-37.9-26.9-58.1-13.9c-8.7,5.6-11.4,14.3-11.2,24.3c0.2,9.5,1.1,24-12.1,24.2c-14.4,0.2-33.9-17.7-46.4-3.4
			c-6.4,7.4-4.8,18.7-3,27.5c2,9.4,4.9,26-7.2,30.1c-6.7,2.3-13.9-1.1-20.4-2.6c-5.6-1.2-11.3-1.5-16.5,1.2
			C4.2,173-0.7,184.8,0.1,195C0.7,202.4,3.1,209.6,5.9,216.5z"/>
	</g>
</g>
<g>
	<path class="st1" d="M154.6,216.5c14.7-11.4,31.1-20.9,47.9-29.1c74.8-36.6,160.6-50.5,243.1-39.5c64.4,8.6,126.6,32.4,180.6,68.6
		h128.4C665.1,102.5,521.7,32,376.6,32.6c-143.7,0.6-285.2,71-373.8,183.9H154.6z"/>
	<g>
		<path d="M484.3,153.5c-79.6-18.3-164.2-12.9-240.9,15c-32.1,11.6-64.4,26.7-91.3,48.1h4.9c1.8-1.4,3.6-2.7,5.5-4
			c16.1-11.4,33.6-20.7,51.5-28.8c75.8-34.4,162.1-46,244.2-32.3c38.6,6.4,76.2,18.3,111.5,34.9c17.9,8.5,35.3,18.2,51.9,29
			c0.6,0.4,1.2,0.8,1.8,1.2h5.4c-11.7-7.9-23.8-15.3-36.3-22C558.5,176.1,522,162.2,484.3,153.5z"/>
		<path d="M4.7,216.5C35,178.1,71.4,144.6,112,117.2c49.8-33.6,105.7-58,164.2-71.4c58.5-13.4,119.3-15.3,178.5-5.2
			C514,50.7,571.3,72.2,623,103.1c49.5,29.7,93.9,68.1,129.7,113.5h3.8c-31.5-40.4-69.7-75.4-112.4-103.7
			c-50.7-33.6-107.6-58-167-70.9C417.7,29,356.4,27.8,296.7,38.6c-59.5,10.8-116.9,33-168.4,64.6C79.6,133.1,36.1,171.5,0.9,216.5
			H4.7z"/>
	</g>
	<path d="M80.2,216.5c2.6-3.2,5.4-6.4,8.1-9.6c11.7,1.5,23.2,4.8,34,9.6h7c-7.2-3.6-14.8-6.6-22.6-8.8c-5.3-1.5-10.6-2.6-16-3.4
		c10.9-12.1,22.7-23.5,35.1-34c17.5,7,33.1,18.7,44.8,33.5c0.2,0.3,0.5,0.6,0.7,0.9c0.8-0.5,1.7-1.1,2.5-1.6
		c-8.9-11.6-20.1-21.4-32.8-28.7c-4.1-2.4-8.4-4.4-12.7-6.3c4.1-3.4,8.3-6.7,12.6-10c7.6-5.7,15.3-11.1,23.3-16.2
		c12.6,11.4,23.3,24.9,31.3,39.8c1.3,2.4,2.5,4.8,3.6,7.2c0.9-0.4,1.8-0.9,2.7-1.3c-6.5-13.7-14.9-26.5-25.2-37.7
		c-3.1-3.4-6.4-6.6-9.7-9.7c11.7-7.4,23.8-14.1,36.2-20.1c13.5,14.8,23.8,32.6,29.9,51.7c0.2,0.6,0.4,1.2,0.5,1.8
		c0.9-0.4,1.9-0.7,2.8-1.1c-4.6-14.9-11.6-29-20.6-41.7c-3-4.2-6.3-8.2-9.8-12.1c14.3-6.8,29.1-12.7,44.2-17.6
		c13.1,17,21.5,37.5,24.5,58.8c1-0.3,1.9-0.5,2.9-0.8c-2.2-15.5-7.3-30.7-14.9-44.4c-2.8-5.1-6-9.9-9.5-14.5
		c7.3-2.3,14.6-4.5,22.1-6.3c8.8-2.2,17.6-4.1,26.6-5.8c0,0.2,0.1,0.5,0.2,0.7c11.9,17.8,19.3,38.6,21.4,59.9c0,0.2,0,0.4,0.1,0.7
		c1-0.2,2-0.3,2.9-0.5c-1.4-15.8-5.7-31.3-12.6-45.6c-2.6-5.5-5.6-10.7-9-15.8c17.4-3,35-4.9,52.6-5.7c6.9,16,10.1,33.4,9.6,50.8
		c-0.1,4.1-0.5,8.1-1.1,12.2c1-0.1,2-0.1,3-0.2c2.2-16.8,0.9-34-3.8-50.3c-1.3-4.3-2.8-8.5-4.5-12.7c18-0.7,36-0.2,54,1.3
		c6.2,18.3,7.5,38.1,3.9,57.1c-0.3,1.6-0.7,3.3-1.1,4.9c1,0.1,2,0.1,3,0.2c3.6-15.4,3.9-31.6,1.1-47.2c-0.9-5-2.2-9.9-3.7-14.7
		c9.5,0.9,19,2.1,28.5,3.6c7.2,1.1,14.3,2.5,21.4,3.9c2.5,20,0.5,40.4-5.9,59.4c0,0,0,0,0,0c1,0.2,2,0.4,2.9,0.5
		c4.6-13.8,7-28.3,7-42.9c0-5.5-0.3-11-1-16.4c18.7,4,37,9.2,55,15.5c0.8,19.3-4.1,38.6-13.7,55.3c1,0.3,2,0.6,2.9,0.9
		c6.6-11.7,11-24.6,12.9-37.8c0.8-5.7,1.1-11.5,0.9-17.3c16.2,5.8,32.1,12.4,47.6,19.9c-4.4,17.8-12.7,34.5-24.2,48.8
		c1,0.4,1.9,0.8,2.8,1.2c8.2-10.3,14.8-21.9,19.5-34.1c1.8-4.7,3.3-9.6,4.6-14.5c7,3.4,14,7,20.9,10.8c6.7,3.7,13.4,7.5,19.9,11.5
		c-2.7,18.3-14.3,34.5-30.9,42.6c1,0.6,2.1,1.1,3.1,1.7c11.2-6,20.4-15.5,25.9-27.4c2.2-4.9,3.8-10,4.7-15.2
		c14.1,8.7,27.9,18,41.2,27.9c-3.4,12.8-9.6,24.8-17.7,35.3h3.8c3.8-5.2,7.2-10.6,10.1-16.4c2.7-5.4,4.8-11.1,6.5-16.9
		c13.9,10.5,27.3,21.6,40.1,33.3h4.4c-14-12.9-28.7-25.2-43.9-36.6c-0.2-0.5-0.7-0.8-1.2-0.9c-15.6-11.7-31.9-22.6-48.7-32.5
		c-46.6-27.6-97.5-48-150.6-58.8c-56.6-11.5-115.5-12.4-172.3-1.1c-14.7,2.9-29.1,6.7-43.3,11.3c-0.3,0-0.7,0.1-0.9,0.3
		c-34.3,11.2-67.1,27.2-96.9,47.7c-28.7,19.7-54.8,43.5-76.7,70.7H80.2z"/>
</g>
</svg>
