<?xml version="1.0" encoding="utf-8"?>
<!-- Generator: Adobe Illustrator 27.9.5, SVG Export Plug-In . SVG Version: 9.03 Build 54986)  -->
<svg version="1.1" id="Calque_1" xmlns="http://www.w3.org/2000/svg" xmlns:xlink="http://www.w3.org/1999/xlink" x="0px" y="0px"
	 viewBox="0 0 388.4 324.2" style="enable-background:new 0 0 388.4 324.2;" xml:space="preserve">
<style type="text/css">
	.st0{fill:#F7BC5C;}
	.st1{fill:#FEBB46;}
</style>
<g>
	<path d="M0,8.9c0.7-0.6,1.5-1.2,2.3-1.8c3.9-2.7,8.8-4.2,13.5-3.4c5.4,0.9,8.3,4.6,10,9.6c1.6,4.9,3,9.9,7.7,12.8
		c4,2.5,9.1,2.5,13.6,1.4c11.5-3,17.2-14.1,27-19.8C78.1,5.3,83.4,4,88,5.4c5.4,1.6,7.2,6.7,7.5,11.8c0.4,5.2-0.1,10.7,2.3,15.6
		c2,4.2,6,6.9,10.4,8.2c11,3.3,21.2-2.3,30.7-7.1c8.5-4.3,21.6-9.3,29.7-1.1c8,8.1,1.9,21.6,2.7,31.5c0.4,4.5,1.5,9.1,4.5,12.5
		c3.5,4.1,9,5,14,3.9c6.2-1.4,11.8-5,17.7-7.3c5.5-2.1,11.4-3.4,17.1-1.8c4.7,1.3,9,4.5,10.2,9.4c1.1,4.4-0.1,9.1-1.2,13.3
		c-2,7.6-5.4,17.6,2.2,23.3c8.8,6.6,20.3-2,29.3-3.7c10-1.9,20,5.8,23,15c1.7,5.5,0.5,10.6-1.7,15.7c-2.1,5-4.9,10.1-5,15.6
		c-0.1,11.1,11.3,16.1,20.9,16.5c6.7,0.3,13.7-1,20.3,0.6c4.8,1.2,10,4.5,11.3,9.6c1.1,4.4-1.7,8.2-4.7,11.1c-3.1,3-6.6,5.5-9.3,9
		c-2.8,3.7-4.1,8.2-2.9,12.8c1.4,5,5.2,9.1,9.4,11.9c10.3,6.8,24.2,4.4,34.3,11.6c4,2.9,7.8,7.7,7.6,12.9c-0.2,4.5-3.6,7.6-7,10
		c-5.6,4-14.7,8.2-13.6,16.5c0.7,4.8,4.8,8,9.1,9.6c5.6,2,11.6,1,17.3,2.6c10,2.7,12.4,14.7,9.4,23.4c-0.7,2.1-1.8,4-3,5.9h4.1
		c0.1-0.3,0.3-0.5,0.4-0.8c4.4-8.2,4.7-19.4-1.6-26.8c-3.6-4.2-8.8-5.6-14.1-6.1c-5.4-0.5-11.7-0.2-15.9-4.3
		c-7.7-7.4,5.4-13.9,10.3-17.4c3.3-2.5,6.6-5.5,7.7-9.6c1.3-4.9-0.5-9.9-3.5-13.8c-7.9-10.3-21.1-10-32.5-13.4
		c-5.5-1.7-10.8-4.9-13.7-10c-2.7-4.6-1.9-9.6,1.5-13.6c5.3-6.2,15.1-11,14.3-20.4c-0.4-5-4-9.1-8.2-11.6
		c-5.4-3.2-11.7-3.4-17.9-3.3c-6,0.2-12.2,0.6-17.9-1.6c-5-1.9-8.9-6-8.7-11.6c0.2-5.8,3.6-11.1,5.6-16.3c1.9-4.9,2.6-10,1.1-15.1
		c-2.8-9.5-11.5-17.2-21.4-18.3c-5.4-0.6-10.5,1.4-15.4,3.3c-4.5,1.7-10.3,4.4-15.1,2.3c-9.3-4-3.4-16.9-1.9-23.8
		c1-4.4,1.6-9.2-0.1-13.6c-1.7-4.6-5.6-7.8-10.1-9.6c-12.1-4.7-23.3,2.5-34.2,6.9c-5.3,2.1-11.9,3.2-15.7-2.1
		c-2.8-3.8-3.3-9.1-3.2-13.7c0.4-10.4,4.6-23.3-5-31c-8.4-6.8-20.3-4-29.2,0.2c-10,4.7-20.7,12.3-32.3,8.1c-5.1-1.8-8-5.9-8.6-11.2
		c-0.7-5.3,0.2-10.9-1.8-16C93.8,0,81.6-0.2,73.2,4.1C63,9.5,57.2,21.7,45.4,24.3C40.5,25.4,35,24.5,32.1,20
		c-2.9-4.6-3-10.5-6.6-14.8C19.4-2.1,7.7-1,0.5,4C0.3,4.2,0.2,4.3,0,4.4V8.9z"/>
	<path class="st0" d="M0,57.4c6.7,2,14.1,2.4,21.2,3C59,63.8,95,77.7,130.5,91.3c40.1,15.5,81,31.4,114.1,58.9
		c52.2,43.4,78,109.5,100.7,174h37.5c0.7-1.1,1.3-2.2,1.8-3.3c4.3-9.2,2.2-22.3-7-26.7c-4.9-2.3-10.6-1.8-15.9-2.6
		c-5.4-0.8-11.3-3.8-12-9.2c-1.3-10.1,14.8-12.7,19.4-21.7c4-7.9-2.8-17.5-10.9-21.1c-8.1-3.6-17.4-3.7-25.6-6.9
		c-8.3-3.1-16.1-11.5-13.6-20c2.7-9.3,16.1-13.2,17-22.9c0.7-7.1-6.3-12.9-13.3-14.3c-7-1.5-14.2-0.1-21.4-0.6
		c-7.1-0.5-15-3.6-17.3-10.4c-3-8.7,4.5-17.2,6.5-26.2c3.1-14.2-11.5-29-25.7-26.2c-9.8,1.9-20.8,10.1-28.3,3.5
		c-9.6-8.3,4-24.3-0.1-36.3c-2.4-7.1-10.6-10.7-18.1-10.3s-14.3,3.8-21.1,7c-4.9,2.3-10.6,4.5-15.7,2.6c-7.8-3-9.3-13.4-8.3-21.7
		s2.8-17.7-2.4-24.3c-5.4-6.9-16-7.1-24.2-4.2c-8.3,2.9-15.5,8.3-24,10.7c-8.4,2.4-19.2,0.7-23.2-7.1c-3.9-7.5,0.1-17.8-5.1-24.5
		c-4.9-6.4-15.2-5.3-22-0.9C65.5,11.1,60.7,18,54,22.5c-6.7,4.6-16.8,6.1-22.1,0c-3.7-4.3-3.7-10.9-7.1-15.5C19.6,0,8.4,0.5,1.4,5.6
		C0.9,5.9,0.5,6.2,0,6.6V57.4z"/>
	<path class="st1" d="M206.3,324.2h158.9c-21.3-89.9-74.7-172.1-148.7-227.5C154.1,50.2,77.7,23.1,0,18.7v124.8
		c43.5,8.1,85.1,26.7,119.6,54.4C160,230.4,190.2,275,206.3,324.2z"/>
	<g>
		<path d="M163,65.3c36.3,19,69.5,43.6,98.1,73c27.8,28.6,51.2,61.4,69.4,96.9c14.5,28.2,25.6,58.2,33,89h3.6
			c-6.2-26.3-15.1-52-26.6-76.6c-17-36.6-39.5-70.7-66.6-100.8c-27.6-30.6-60-56.9-95.8-77.3c-37-21.2-77.4-36.3-119.2-44.9
			C39.5,20.6,19.8,18,0,16.9v3.6c14.6,0.8,29.1,2.5,43.5,4.9C85.1,32.3,125.6,45.8,163,65.3z"/>
		<path d="M81.7,174.6c24.7,13.7,47.1,31.4,66.1,52.3c18.7,20.6,34.1,44.1,45.7,69.4c4.2,9.1,7.8,18.4,10.9,27.9h3.7
			c-2.1-6.6-4.6-13.2-7.2-19.6c-10.7-26.1-25.4-50.4-43.5-72c-18.4-22-40.4-40.9-64.9-55.8c-25-15.2-52.6-26.3-81.2-32.8
			c-3.8-0.9-7.6-1.6-11.4-2.3v3.6c0.3,0.1,0.6,0.1,0.9,0.2C29.2,150.8,56.5,160.6,81.7,174.6z"/>
	</g>
	<path d="M284.8,280.9c-12.2-28.5-28.7-55.1-48.2-79.1c-13.4-16.4-28.3-31.6-44.3-45.4c-0.2-0.2-0.4-0.4-0.6-0.5
		c-7.8-6.7-15.8-13-24-19.1c-9.2-6.7-18.7-13.1-28.4-19.1c-0.2-0.3-0.6-0.5-0.9-0.6c-18.1-11.1-36.9-20.9-56.3-29.5
		C55.4,76,28,66.4,0,58.7v3.7c10.6,3,21.1,6.2,31.5,9.7c1.3,12,1.3,24.2,0.2,36.2c-1.2,12.1-3.6,24-7.2,35.6
		c-0.5,1.7-1.1,3.3-1.6,4.9c1.1,0.3,2.3,0.6,3.4,1c2.3-6.6,4.2-13.3,5.6-20.1c2.6-12.1,4.1-24.6,4.2-37c0.1-6.4-0.2-12.9-0.9-19.3
		c11.5,3.9,22.8,8.2,34,12.9c4.3,1.8,8.6,3.6,12.8,5.5c1.7,12.6,1.1,25.5-1.6,37.9c-2.7,12.4-7.5,24.3-14.2,35.1
		c1.1,0.5,2.2,1,3.2,1.5c2.9-4.6,5.4-9.5,7.6-14.5c5.3-12.3,8.5-25.4,9.3-38.7c0.4-6.5,0.2-13.1-0.5-19.6
		c17.2,7.9,33.9,16.7,50,26.5c-2,14.6-5.9,28.9-11.4,42.6c-3.9,9.7-8.7,19.1-14.3,28c1,0.7,1.9,1.4,2.9,2.1c1.2-1.9,2.4-3.8,3.5-5.8
		c7.7-13.3,13.7-27.6,17.9-42.5c2.1-7.4,3.7-14.9,4.8-22.5c5.5,3.4,10.9,6.9,16.2,10.6c11.6,8,22.9,16.6,33.6,25.7
		c-2.4,13.1-7.7,25.5-15.4,36.5c-7.5,10.7-17.1,19.9-28.2,26.8c0.8,0.9,1.7,1.8,2.5,2.6c4.6-2.9,8.9-6.2,13-9.8
		c10.5-9.3,19.1-20.9,24.8-33.7c2.8-6.3,5-13,6.4-19.8c12.1,10.5,23.5,21.9,34,33.9c2.3,2.6,4.5,5.3,6.7,7.9
		c-6,11.9-14,22.6-23.7,31.7c-9.8,9.2-21.1,16.7-33.4,22c-0.6,0.3-1.2,0.5-1.9,0.8c0.7,1,1.3,2,2,3c6-2.5,11.9-5.6,17.4-9.1
		c11.5-7.3,21.9-16.5,30.3-27.3c4.5-5.7,8.4-11.8,11.7-18.2c11.6,14.4,22,29.7,31.1,45.8c0,0-0.1,0-0.1,0.1
		c-10.5,11.2-22.8,20.5-36.3,27.8c-11.3,6.1-23.4,10.7-35.9,13.6c0.5,1.1,1,2.2,1.5,3.3c4-1,8-2.1,11.9-3.4
		c14.8-4.9,28.9-12.1,41.5-21.3c6.9-5,13.3-10.7,19.2-16.8c3,5.5,5.9,11.1,8.6,16.8c5.8,12.2,10.8,24.9,14.9,37.8
		c-0.1,0.1-0.1,0.1-0.2,0.2c-4.8,5.3-10,10.2-15.7,14.5h5.7c4-3.3,7.8-6.9,11.4-10.8c1.1,3.6,2.1,7.2,3,10.8h3.6
		C295.7,309.4,290.8,295,284.8,280.9z"/>
</g>
</svg>
